<?xml version="1.0" encoding="UTF-8"?>
<svg width="105px" height="105px" viewBox="0 0 105 105" version="1.1" xmlns="http://www.w3.org/2000/svg" xmlns:xlink="http://www.w3.org/1999/xlink">
    <!-- Generator: Sketch 52.2 (67145) - http://www.bohemiancoding.com/sketch -->
    <title>Group 3</title>
    <desc>Created with Sketch.</desc>
    <g id="Page-1" stroke="none" stroke-width="1" fill="none" fill-rule="evenodd">
        <g id="Allow-to-access" transform="translate(-195.000000, -343.000000)">
            <g id="Group-3" transform="translate(195.000000, 343.000000)">
                <g id="Group">
                    <rect id="Rectangle-Copy-5" fill="#D8D8D8" x="0" y="0" width="105" height="105"></rect>
                    <g id="icons/camera-copy" transform="translate(16.000000, 17.000000)">
                        <g id="Photo2" stroke-width="1" fill-rule="evenodd">
                            <path d="M52.0241517,4.40547957 L54.556173,4.40896984 C55.917096,4.41084581 57.0218628,5.50500553 57.0237388,6.85284397 L57.0916737,55.6623916 C57.0935496,57.01023 55.9918243,58.1013482 54.6309013,58.0994722 L5.96356192,58.0323865 C4.60263891,58.0305106 3.49787206,56.9363509 3.49599609,55.5885124 C3.49310028,53.5079411 3.49115432,52.1098188 3.49015822,51.3941455" id="Rectangle" fill="#FFFFFF" transform="translate(30.290917, 31.252477) rotate(-188.000000) translate(-30.290917, -31.252477) "></path>
                            <path d="M14.062427,58.1724557 L11.7851698,58.4928917 C10.5611786,58.6651212 9.43107193,57.822585 9.26100597,56.6110345 L3.1023726,12.7369091 C2.93230664,11.5253586 3.78668185,10.4035833 5.01067306,10.2313538 L48.7812575,4.07233507 C50.0052487,3.9001056 51.1353554,4.74264177 51.3054213,5.95419229 L51.8346532,9.72444199 C51.86329,9.92845073 53.7540089,23.4701122 57.5068099,50.3494265 C57.6952565,51.6991433 56.7551838,52.9462539 55.4071023,53.1349257 C55.3926224,53.1369522 55.3781248,53.1388497 55.3636111,53.140618 L14.062427,58.1724557 Z" id="Rectangle" fill="#D1D1D1"></path>
                            <path d="M52.0241517,4.40547957 L54.556173,4.40896984 C55.917096,4.41084581 57.0218628,5.50500553 57.0237388,6.85284397 L57.0916737,55.6623916 C57.0935496,57.01023 55.9918243,58.1013482 54.6309013,58.0994722 L5.96356192,58.0323865 C4.60263891,58.0305106 3.49787206,56.9363509 3.49599609,55.5885124 C3.49310028,53.5079411 3.49115432,52.1098188 3.49015822,51.3941455" id="Rectangle" stroke="#989898" stroke-width="2.5" stroke-linecap="round" transform="translate(30.290917, 31.252477) rotate(-188.000000) translate(-30.290917, -31.252477) "></path>
                            <path d="M54.5410708,10.3894452 L54.8491516,12.2928921" id="Line" stroke="#989898" stroke-width="2.5" stroke-linecap="round"></path>
                        </g>
                        <path d="M21.0256491,15.2978055 C21.0237764,15.2978046 21.0237764,15.2978046 21.0219038,15.2978055 C19.503121,15.2988364 18.2727401,16.5308888 18.2737711,18.0496715 L18.3049101,63.9233734 C18.30594,65.4406936 19.5357105,66.6704695 21.0530307,66.671506 L65.9743509,66.7021945 C65.9762236,66.7021954 65.9762236,66.7021954 65.9780962,66.7021945 C67.496879,66.7011636 68.7272599,65.4691112 68.7262289,63.9503285 L68.6950899,18.0766266 C68.69406,16.5593064 67.4642895,15.3295305 65.9469693,15.328494 L21.0256491,15.2978055 Z" id="Rectangle" stroke="#989898" stroke-width="2.5" fill="#FFFFFF" fill-rule="evenodd" transform="translate(43.500000, 41.000000) rotate(6.000000) translate(-43.500000, -41.000000) "></path>
                        <path d="M25.8554714,19.5788792 L61.8275531,19.6034539 C63.4828116,19.6045847 64.8243794,20.9461583 64.8255029,22.6014168 L64.8459483,52.7212846 C64.8470729,54.3781385 63.5048392,55.7221957 61.8479853,55.7233203 C61.8466234,55.7233213 61.8452614,55.7233213 61.8438995,55.7233203 L25.8718177,55.6987456 C24.2165593,55.6976148 22.8749915,54.3560411 22.8738679,52.7007827 L22.8534226,22.5809148 C22.8522979,20.924061 24.1945316,19.5800038 25.8513855,19.5788791 C25.8527475,19.5788782 25.8541094,19.5788782 25.8554714,19.5788792 Z" id="Rectangle" fill="#FFFFFF" fill-rule="evenodd" transform="translate(43.849685, 37.651100) rotate(6.000000) translate(-43.849685, -37.651100) "></path>
                        <path d="M26.6299254,45.9156175 L31.0955578,42.1455493 C32.6085238,40.868242 34.8283173,40.8900677 36.3158756,42.196877 L39.8530695,45.3042767 C40.2501766,45.6531325 40.850195,45.6326935 41.2226423,45.2576236 L48.2014863,38.2296388 C49.7580935,36.6620709 52.2907379,36.6531856 53.8583058,38.2097928 C53.9654632,38.3162009 54.0665087,38.4285921 54.160957,38.5464265 L60.0859359,45.9384733 L61.1060766,47.3037529 L61.202442,51.8951184 C61.214031,52.4472815 60.7758091,52.9042929 60.223646,52.915882 C60.2144355,52.9160753 60.2052227,52.9161413 60.1960104,52.91608 L26.1199303,52.6894068 C25.5755089,52.6857853 25.1340198,52.2473068 25.1266732,51.7029229 L25.0637742,47.0420784 L26.6299254,45.9156175 Z" id="Path-2" fill="#D1D1D1" fill-rule="evenodd" transform="translate(43.143894, 43.986582) rotate(6.000000) translate(-43.143894, -43.986582) "></path>
                        <path d="M25.8546174,20.8288789 C25.8534257,20.8288783 25.8534257,20.8288783 25.852234,20.8288789 C24.8857359,20.8295349 24.1027663,21.6135683 24.1034223,22.5800663 L24.1238676,52.6999342 C24.124523,53.6655016 24.9071043,54.4480862 25.8726717,54.4487459 L61.8447534,54.4733206 C61.8459451,54.4733212 61.8459451,54.4733212 61.8471368,54.4733206 C62.8136349,54.4726646 63.5966046,53.6886312 63.5959485,52.7221331 L63.5755032,22.6022653 C63.5748478,21.6366979 62.7922666,20.8541132 61.8266992,20.8534536 L25.8546174,20.8288789 Z" id="Rectangle" stroke="#989898" stroke-width="2.5" transform="translate(43.849685, 37.651100) rotate(6.000000) translate(-43.849685, -37.651100) "></path>
                        <ellipse id="Oval" stroke="#989898" stroke-width="2.5" fill="#D1D1D1" fill-rule="evenodd" transform="translate(33.994827, 29.528906) rotate(6.000000) translate(-33.994827, -29.528906) " cx="33.9948267" cy="29.5289059" rx="3.64974747" ry="3.67320819"></ellipse>
                        <path d="M25.7496954,47.0032613 C27.221172,45.732957 29.4283869,43.8275006 32.37134,41.286892 C33.28904,40.5121324 34.6315799,40.5261825 35.5351958,41.3200026 L40.3688844,45.5663637 C40.6101332,45.778299 40.9730336,45.7660945 41.199093,45.5384434 L49.6829341,36.9948643 C50.6322075,36.0389066 52.1728016,36.0394908 53.1239473,36.9961691 C53.1854111,37.0579904 53.243547,37.1230744 53.2981053,37.1911418 C57.5220131,42.5876562 60.1274607,45.9164068 61.1144481,47.1773936" id="Path-2" stroke="#989898" stroke-width="2.5" stroke-linecap="round" transform="translate(43.432072, 41.727836) rotate(6.000000) translate(-43.432072, -41.727836) "></path>
                    </g>
                </g>
                <g id="Group-2-Copy" opacity="0.280273438" transform="translate(16.000000, 17.000000)">
                    <g id="icons/camera-copy-3">
                        <g id="icons/camera-copy-4"></g>
                    </g>
                </g>
            </g>
        </g>
    </g>
</svg>