<?xml version="1.0" encoding="UTF-8"?>
<svg width="29px" height="29px" viewBox="0 0 29 29" version="1.1" xmlns="http://www.w3.org/2000/svg" xmlns:xlink="http://www.w3.org/1999/xlink">
    <!-- Generator: Sketch 52.2 (67145) - http://www.bohemiancoding.com/sketch -->
    <title>Group 6</title>
    <desc>Created with Sketch.</desc>
    <defs>
        <polygon id="path-1" points="0 0.000391891892 28.9996081 0.000391891892 28.9996081 29 0 29"></polygon>
    </defs>
    <g id="Symbols" stroke="none" stroke-width="1" fill="none" fill-rule="evenodd">
        <g id="icons/check">
            <g id="Group-6">
                <g id="Group-3">
                    <mask id="mask-2" fill="white">
                        <use xlink:href="#path-1"></use>
                    </mask>
                    <g id="Clip-2"></g>
                    <path d="M28.9996865,14.5001176 C28.9996865,6.49219865 22.5079973,0.000313513514 14.4998824,0.000313513514 C6.49176757,0.000313513514 -0.000117567568,6.49219865 -0.000117567568,14.5001176 C-0.000117567568,22.5082324 6.49176757,29.0001176 14.4998824,29.0001176 C22.5079973,29.0001176 28.9996865,22.5082324 28.9996865,14.5001176" id="Fill-1" fill="#8BC540" mask="url(#mask-2)"></path>
                </g>
                <path d="M11.3211718,23 L4.62822489,16.5377832 C3.7905917,15.7290263 3.7905917,14.4178092 4.62822489,13.6090523 C5.46585808,12.8002954 6.82389144,12.8002954 7.66152463,13.6090523 L11.3376119,17.1582156 L21.3467907,7.59873603 C22.1888891,6.79409441 23.5469225,6.80154116 24.3798875,7.61460938 C25.2130555,8.4276776 25.2057488,9.73909059 24.3634474,10.5433403 L11.3211718,23 Z" id="Fill-4" fill="#FFFFFF"></path>
            </g>
        </g>
    </g>
</svg>