<?xml version="1.0" encoding="UTF-8"?>
<svg width="58px" height="66px" viewBox="0 0 58 66" version="1.1" xmlns="http://www.w3.org/2000/svg" xmlns:xlink="http://www.w3.org/1999/xlink">
    <!-- Generator: Sketch 59.1 (86144) - https://sketch.com -->
    <title>icons/camera copy 2</title>
    <desc>Created with Sketch.</desc>
    <g id="Page-1" stroke="none" stroke-width="1" fill="none" fill-rule="evenodd">
        <g id="Verifi/Step2" transform="translate(-158.000000, -179.000000)">
            <g id="icons/camera-copy-2" transform="translate(157.500000, 180.000000)">
                <path d="M45.8931699,9.47970328 L52.1149551,52.1002995 L52.6740125,56.3761928 C52.8540176,57.7536966 51.8110688,59.0074878 50.3444574,59.1767008 L11.1750531,63.6937538 C9.70843211,63.8628889 8.3735185,62.8833199 8.19344009,61.5058251 L2.16299373,15.3767152 C2.0729912,14.6879634 2.59446561,14.0610678 3.32777131,13.9764613 C3.33239935,13.975893 3.33702754,13.9753247 3.34165568,13.9747565 L6.59131548,13.6325938 M9.21900688,13.3557477 L12.287164,13.0324955" id="Shape" stroke="#989898" stroke-width="2.5" fill="#FFFFFF" fill-rule="evenodd" stroke-linecap="round"></path>
                <path d="M42.177214,12 L47.503366,50.5491298 L47.9824675,54.4164838 C48.1368114,55.6623635 47.2549698,56.7948911 46.012819,56.9460551 L12.8384024,60.9832272 C11.5962516,61.1343911 10.464169,60.2469487 10.309825,59.001069 L5.24641803,18.12875 C5.11061817,17.0325602 5.88916807,16.0338352 6.98535792,15.8980353 C6.98678414,15.8978586 6.98821054,15.8976835 6.98963713,15.8975099 L10.3597636,15.4873812 L10.3597636,15.4873812" id="Rectangle" fill="#D1D1D1" fill-rule="evenodd"></path>
                <path d="M18,1.25 C16.4812169,1.25 15.25,2.48121694 15.25,4 L15.25,48 C15.25,49.5187831 16.4812169,50.75 18,50.75 L54,50.75 C55.5187831,50.75 56.75,49.5187831 56.75,48 L56.75,11.4941094 C56.75,10.7362983 56.4372833,10.0120744 55.885688,9.49243983 L47.9306442,1.99833048 C47.4204267,1.51767618 46.7459202,1.25 46.0449563,1.25 L18,1.25 Z" id="Rectangle" stroke="#989898" stroke-width="2.5" fill="#FFFFFF" fill-rule="evenodd"></path>
                <path d="M47,1 L47,9.73928751 C47,10.9878445 47.8599204,12 48.920686,12 L54,12" id="Shape" stroke="#989898" stroke-width="2.5" stroke-linecap="round" stroke-linejoin="round"></path>
                <path d="M22,12.5 L38,12.5 M22,21.5 L50,21.5 M22,28.5 L50,28.5 M22,35.5 L50,35.5 M22,43.5 L38,43.5" id="lines" stroke="#989898" stroke-width="2.5" stroke-linecap="round" stroke-linejoin="round"></path>
            </g>
        </g>
    </g>
</svg>