<?xml version="1.0" encoding="UTF-8"?>
<svg width="157px" height="164px" viewBox="0 0 157 164" version="1.1" xmlns="http://www.w3.org/2000/svg" xmlns:xlink="http://www.w3.org/1999/xlink">
    <!-- Generator: Sketch 52.6 (67491) - http://www.bohemiancoding.com/sketch -->
    <title>Group</title>
    <desc>Created with Sketch.</desc>
    <defs>
        <linearGradient x1="0.0328518835%" y1="49.9911069%" x2="100.012084%" y2="49.9911069%" id="linearGradient-1">
            <stop stop-color="#FFCC5D" offset="0%"></stop>
            <stop stop-color="#FFCF51" offset="9%"></stop>
            <stop stop-color="#FFD346" offset="23%"></stop>
            <stop stop-color="#FFD43F" offset="43%"></stop>
            <stop stop-color="#FFD53D" offset="100%"></stop>
        </linearGradient>
        <linearGradient x1="0.00144493982%" y1="49.9932284%" x2="99.9989611%" y2="49.9932284%" id="linearGradient-2">
            <stop stop-color="#FFCC5D" offset="0%"></stop>
            <stop stop-color="#FFCF51" offset="9%"></stop>
            <stop stop-color="#FFD346" offset="23%"></stop>
            <stop stop-color="#FFD43F" offset="43%"></stop>
            <stop stop-color="#FFD53D" offset="100%"></stop>
        </linearGradient>
    </defs>
    <g id="Page-1" stroke="none" stroke-width="1" fill="none" fill-rule="evenodd">
        <g id="Splash" transform="translate(-109.000000, -264.000000)">
            <g id="Group" transform="translate(108.000000, 263.000000)">
                <g id="Logo" transform="translate(24.500000, 0.500000)">
                    <path d="M68.3978725,34.6554492 C65.4959562,33.3382818 65.049061,30.7381592 67.3647903,28.6740268 C68.8621792,27.3397533 67.6607858,26.5015559 67.132637,25.55502 C66.6044882,24.6084842 66.2214352,23.6733523 64.6311851,24.317681 C61.7292687,25.4580856 59.4773816,23.9014333 59.5702429,20.8394467 C59.6108697,19.425345 58.9608405,18.9919912 57.8290931,18.9064608 C56.6973457,18.8209305 55.4263063,17.6862278 54.5325161,19.6306178 C53.284692,22.3504829 50.6265366,22.8009428 48.566176,20.65128 C47.2719213,19.3056025 46.3839349,20.0810776 45.3624603,20.7368103 C44.3409857,21.392543 43.3659418,21.7175583 44.0798133,23.3711451 C45.2405798,26.028288 43.49943,28.3262034 40.5394753,28.2007588 C38.9550289,28.1380366 38.641622,28.981936 38.4442917,30.0881286 C38.2469613,31.1943211 37.4750516,32.3689379 39.1929861,33.1843272 C41.4680885,34.2905197 42.147137,35.830066 41.3229927,37.6090973 C39.9648958,38.5271231 38.6126028,39.4337448 37.2603098,40.3802806 C37.0052471,40.6037575 36.6327698,40.640582 36.3375004,40.471513 C34.4797331,39.6648429 32.4587348,39.2864578 30.4291986,39.3653205 C23.3129289,39.6206723 17.4246992,44.887378 16.5,51.8242414 C16.505857,51.9349921 16.5174799,52.0453756 16.534823,52.1549588 C16.7263495,52.0409183 16.8540338,51.955388 16.9933258,51.8584536 C19.3535511,50.2580857 21.7099072,48.6444131 24.0623941,47.0174358 C24.2937426,46.8193283 24.6315827,46.7982915 24.8865383,46.9661176 C27.3937941,48.3346032 29.9087883,49.6859827 32.4315209,51.0202562 C32.727586,51.1542774 32.9209198,51.4413995 32.9306505,51.7615192 C33.331115,54.5441066 33.7257756,57.338098 34.1610631,60.1206854 C34.2275986,60.3937581 34.0958414,60.6761856 33.8418523,60.8049282 C31.4738885,62.4128987 29.1233363,64.0208693 26.7611763,65.6345419 C26.6160805,65.7314763 26.4767885,65.8398148 26.2968697,65.9766633 C27.2438296,66.1955983 28.2031354,66.359342 29.1697669,66.4670373 C32.3024166,66.68345 35.414907,65.8293353 37.979985,64.0493794 C42.7333241,60.7764181 44.9039575,56.2832237 44.2597321,50.5812004 C44.1683559,50.2536924 44.317063,49.9072975 44.6195697,49.7430029 L48.0380272,47.4222794 C48.1773192,48.7508509 49.2858513,48.8078711 50.2376798,49.0473561 C51.1895084,49.2868411 52.2748251,49.7829171 53.0119119,48.288987 C54.4454586,45.346743 56.8482453,44.9647074 59.2162091,47.3367491 C60.5278753,48.6482145 61.3288042,47.570532 62.2167906,47.0345419 C63.1047771,46.4985517 64.2423283,46.2305566 63.592299,44.616884 C62.4315325,41.6632359 63.9985673,39.485063 67.2603213,39.5534873 C69.1407631,39.6162095 68.9608443,38.2819361 69.2336244,37.3125921 C69.5064046,36.3432481 69.9242805,35.3567981 68.3978725,34.6554492 Z M59.1117401,34.7409796 C58.6966449,37.6129957 55.9903442,39.6106265 53.0670483,39.2028128 C50.1437524,38.7949991 48.110454,36.1361717 48.5255492,33.2641555 C48.7940686,31.4062868 50.0510492,29.8302858 51.8229984,29.1298169 C53.5949476,28.429348 55.6126643,28.710829 57.116094,29.8682289 C58.6195237,31.0256288 59.3802597,32.8831109 59.1117401,34.7409796 Z" id="Shape" fill="url(#linearGradient-1)"></path>
                    <path d="M109.41835,43.6978647 C109.640916,40.9925863 109.407692,38.2695162 108.728203,35.6398781 C108.134093,33.5971112 107.122028,31.696955 105.754818,30.0573323 C104.989904,29.169588 91.4515109,20.7132546 91.4515109,20.7132546 L90.6635925,0.5 L78.8448169,0.5 L78.3329575,13.6283723 L67.7046862,6.4296766 C67.7046862,6.4296766 60.8607237,1.95112047 58.8765497,1.30807493 C57.6617355,0.900721623 56.4034849,0.633390078 55.1267483,0.511381337 L54.4941132,0.511381337 C53.6607925,0.475530164 52.8262017,0.542435463 52.0095822,0.710554735 C50.3359746,1.06906685 44.3892037,4.51192131 42.5028006,5.65574568 C31.6042216,12.2910652 13.4073329,23.6610209 13.4073329,23.6610209 L5.95949134,28.0769797 C5.95949134,28.0769797 1.49078638,31.0247459 0.599345878,34.8545659 C0.306033197,39.1111859 0.748877833,115.519792 0.817892581,121.238914 L76.0554708,121.278749 L76.0554708,100.137915 L97.3062621,100.137915 L97.3062621,114.882437 C97.3062621,117.073345 97.8353752,118.723639 98.9051038,119.833319 C100.042863,120.95905 101.605187,121.561714 103.212774,121.494994 C104.824784,121.556991 106.392042,120.962604 107.549201,119.850391 C108.699447,118.752092 109.234311,117.096107 109.234311,114.882437 L109.234311,72.6576768 C109.234311,70.4496975 108.659188,68.7937129 107.572206,67.7067952 C106.401989,66.6027728 104.828224,66.0172845 103.212774,66.0849547 C101.618453,66.0202686 100.068631,66.6138821 98.9338599,67.7238672 C97.8487947,68.8240631 97.3062621,70.4686664 97.3062621,72.6576768 L97.3062621,88.0224818 L97.3062621,89.2175222 L93.7807587,89.2175222 L93.7807587,89.1207809 L64.006646,89.1207809 L64.006646,89.2004502 L43.5955341,89.2004502 L64.006646,61.8852413 L64.006646,84.7218941 L76.009461,84.7218941 L75.7966655,70.165164 L75.7966655,52.7858624 L75.8714315,52.7858624 C75.8714315,47.3607584 73.4674177,44.6463095 68.6593903,44.6425157 C67.2378568,44.6174594 65.8643808,45.1516499 64.8405742,46.1277802 C63.3526554,47.6003484 61.9942838,49.1957151 60.7802065,50.8965604 L35.6243307,84.1926619 C34.928432,85.1031689 31.7077437,89.7581357 31.4949482,90.3727279 C31.27586,90.9497159 31.1610041,91.5603251 31.1556257,92.1766699 C31.0526258,94.2492515 31.879809,96.2610707 33.4158587,97.6738557 C34.9169295,99.0225441 37.1771625,99.6883523 40.1793041,99.6883523 L62.6090973,99.6883523 L62.6090973,99.9102884 L64.0008947,99.9102884 C64.0008947,101.014278 64.0354021,108.901545 64.0526558,109.112099 L11.2851294,109.112099 L10.4281963,43.6694114 L10.4281963,37.8023322 C10.4281963,37.8023322 49.6918369,12.2739932 52.5329441,11.3862489 C53.7658344,10.9638452 55.1162587,11.0311654 56.2999991,11.5740409 C61.8901937,14.698218 85.7635454,29.6248415 94.3271254,34.9911419 C96.2537872,36.1975636 98.5945374,37.4153667 98.5945374,39.4753887 L98.5945374,44.3181476 L109.41835,43.6978647 Z" id="Path" fill="url(#linearGradient-2)" fill-rule="nonzero"></path>
                </g>
                <g id="ForHome" transform="translate(0.500000, 143.000000)" fill="#FFD43F" fill-rule="nonzero">
                    <path d="M13.440496,3.37806445 L4.86196802,3.37806445 L4.86196802,8.91575219 L12.0396126,8.91575219 C12.579751,8.86875925 13.1176437,9.02836174 13.5459389,9.36270646 C13.8809629,9.66969008 14.0607663,10.1120783 14.0354949,10.5672104 C14.0565663,11.0209643 13.8741144,11.4602869 13.5384072,11.7641388 C13.108027,12.0937834 12.5710277,12.2504202 12.032081,12.2035175 L4.86196802,12.2035175 L4.86196802,19.3320595 C4.92089408,20.0550282 4.70262347,20.7732824 4.25190589,21.339566 C3.85258678,21.7773399 3.28321125,22.0180364 2.69285822,21.9986342 C2.09612065,22.0206022 1.52013888,21.7766712 1.11874729,21.3319905 C0.670559295,20.7673057 0.452483779,20.0524015 0.508685153,19.3320595 L0.508685153,2.66596781 C0.492906395,2.14671075 0.587929499,1.63008087 0.78735551,1.15086857 C0.968299354,0.758683961 1.28774942,0.448173745 1.68361963,0.2796865 C2.16075392,0.0821412393 2.674274,-0.0108307172 3.18994588,0.00696863668 L13.440496,0.00696863668 C13.9966508,-0.0369269823 14.5492898,0.127671632 14.9920121,0.469073906 C15.3419661,0.788994462 15.5277527,1.25198239 15.4966314,1.72660628 C15.5164036,2.1904833 15.3317667,2.63951883 14.9920121,2.95383666 C14.5440461,3.28180101 13.9918881,3.43277642 13.440496,3.37806445 Z" id="Path"></path>
                    <path d="M27.9341992,0.00606851464 C29.9217964,-0.0585911049 31.8919189,0.394392101 33.649704,1.32021408 C35.2200836,2.19535858 36.4822079,3.52997425 37.2650234,5.14318301 C38.1295102,6.98240087 38.5507247,8.99713076 38.495132,11.0269711 C38.5126238,12.5466734 38.2846987,14.0593012 37.8200724,15.5070128 C37.4014822,16.802177 36.7140579,17.9952764 35.8023942,19.0089121 C34.8911443,19.99964 33.7614329,20.7664138 32.5021027,21.248933 C31.0641706,21.7836353 29.5361161,22.0371591 28.0017052,21.9956066 C26.4632091,22.0201886 24.9346272,21.7462884 23.5013077,21.1891991 C22.2375786,20.6891447 21.1041012,19.9105318 20.1860148,18.9118445 C19.2760935,17.8880966 18.5936411,16.6845761 18.1833379,15.3800783 C17.715276,13.9329892 17.4847948,12.4202071 17.5007776,10.9000366 C17.4866926,9.37825158 17.7249122,7.8645787 18.2058399,6.4199949 C18.6506134,5.14079975 19.3553179,3.96652126 20.2760228,2.97036278 C21.1850708,1.99071444 22.3023363,1.22543099 23.5463116,0.730341925 C24.9497749,0.214879789 26.438722,-0.0308887666 27.9341992,0.00606851464 Z M34.0922431,10.9672372 C34.1300982,9.5783893 33.8745624,8.19710573 33.3421769,6.91279949 C32.9010111,5.84368677 32.1420198,4.93441144 31.1669847,4.30690856 C30.195335,3.71349858 29.0739889,3.40788292 27.9341992,3.42583369 C27.1049703,3.41972336 26.2840253,3.59029822 25.5264865,3.92610501 C24.7920838,4.2462923 24.1424502,4.73195276 23.6288189,5.34478489 C23.052988,6.04293932 22.6267127,6.85097772 22.3762083,7.71920699 C22.0543818,8.77164692 21.8975246,9.86719959 21.9111672,10.9672372 C21.8975915,12.0795192 22.0544061,13.1873632 22.3762083,14.2526012 C22.6328003,15.1477195 23.0748221,15.9794382 23.6738229,16.6942239 C24.1996288,17.3124746 24.8584624,17.8050028 25.6014932,18.135304 C26.3533073,18.4626488 27.1661554,18.6280455 27.9867038,18.6206418 C29.0634445,18.6259313 30.1213329,18.3394252 31.0469741,17.7918341 C32.0400435,17.1844133 32.8246553,16.291398 33.2971729,15.2307436 C33.8771,13.8860271 34.1487062,12.4295584 34.0922431,10.9672372 Z" id="Shape"></path>
                    <path d="M47.3923971,12.3546195 L45.8780002,12.3546195 L45.8780002,19.2927654 C45.936732,20.015108 45.7204238,20.7329941 45.2722415,21.303165 C44.8647263,21.7395156 44.2868709,21.9768509 43.6896968,21.9531438 C43.0831399,21.9787585 42.4969536,21.7319647 42.0920081,21.2804913 C41.671928,20.706099 41.4681629,20.0022767 41.5165373,19.2927654 L41.5165373,2.66540053 C41.4374869,1.94124929 41.6438748,1.21481477 42.0920081,0.639885169 C42.6658817,0.167961016 43.4037943,-0.0576211595 44.1440158,0.0125800389 L51.2616811,0.0125800389 C52.1038075,0.00415611551 52.9457139,0.0445327926 53.7831519,0.133506329 C54.4516198,0.201350059 55.1055197,0.372169425 55.7215798,0.639885169 C56.3978612,0.924378148 57.0105175,1.34062024 57.5237121,1.86426386 C58.04362,2.39019035 58.4484347,3.01815835 58.7125136,3.70838978 C58.9846194,4.43317524 59.1206603,5.20178504 59.1138288,5.97575772 C59.1838439,7.3916138 58.6944512,8.77835983 57.7508716,9.83784111 C56.6095788,10.9173526 55.16883,11.6284849 53.6165682,11.8784723 C54.4631499,12.3490155 55.2173717,12.9686822 55.8427316,13.7074824 C56.5511274,14.5044634 57.1847813,15.3646289 57.7357277,16.2771661 C58.2311592,17.0620609 58.6665232,17.8831655 59.038109,18.7334813 C59.2752214,19.2081953 59.4313278,19.7190673 59.5,20.24506 C59.496212,20.5481178 59.4012386,20.8430408 59.2274086,21.091544 C59.0390621,21.3767742 58.7775997,21.6064329 58.4702101,21.7566386 C58.1307711,21.9214471 57.7572676,22.0042934 57.3798444,21.9984912 C56.9396612,22.0151477 56.5053338,21.8935509 56.138039,21.6508281 C55.7975242,21.4154953 55.5046471,21.1180346 55.2748328,20.7741125 C55.0325293,20.4264494 54.7069339,19.9049548 54.2904748,19.2171865 L52.5413464,16.2998397 C52.050389,15.423372 51.4801128,14.593583 50.83765,13.8208508 C50.4265231,13.3283896 49.9086972,12.9355742 49.3232531,12.672051 C48.7055484,12.4452723 48.0503389,12.3375563 47.3923971,12.3546195 Z M49.8987239,3.28514777 L45.8780002,3.28514777 L45.8780002,9.21809388 L49.8002881,9.21809388 C50.6914637,9.23481263 51.5813758,9.14344915 52.4504826,8.94600972 C53.0818049,8.81446494 53.6562334,8.48947319 54.0936032,8.01638887 C54.4977643,7.50381508 54.6997937,6.86121284 54.661502,6.21005241 C54.6724532,5.64992344 54.5141384,5.09948649 54.207183,4.63045274 C53.8909228,4.17038691 53.4419883,3.81717945 52.9199456,3.61769506 C51.9386505,3.33899589 50.9169783,3.22909576 49.8987239,3.29270566 L49.8987239,3.28514777 Z" id="Shape"></path>
                    <path d="M74.8318239,2.61011299 L74.8318239,8.70518952 L84.1522918,8.70518952 L84.1522918,2.61011299 C84.1036365,1.90467757 84.3192082,1.20634032 84.757226,0.650449021 C85.1519987,0.218174029 85.7174049,-0.0189154313 86.303169,0.00219515955 C86.8984784,-0.0198362133 87.4747708,0.213406577 87.8864536,0.642997827 C88.3308744,1.19841703 88.5471168,1.90159074 88.4913879,2.61011299 L88.4913879,19.3752991 C88.5450217,20.0848008 88.3260756,20.7880837 87.8789853,21.3424142 C87.4739779,21.778784 86.898926,22.0180659 86.303169,21.9981193 C85.7128715,22.0237877 85.1423537,21.7829684 84.7497577,21.3424142 C84.3229985,20.7788408 84.1159822,20.0797774 84.1672285,19.3752991 L84.1672285,12.222153 L74.8318239,12.222153 L74.8318239,19.3752991 C74.8893082,20.0852314 74.669929,20.7899054 74.2194214,21.3424142 C73.8173055,21.7784427 73.244623,22.0178735 72.6510734,21.9981193 C72.0585912,22.0239156 71.4857399,21.7832683 71.0901938,21.3424142 C70.6634345,20.7788408 70.4564183,20.0797774 70.5076645,19.3752991 L70.5076645,2.61011299 C70.4574789,1.9092111 70.6615833,1.21367411 71.0827254,0.650449021 C71.4826064,0.212045021 72.0576003,-0.025620373 72.6510734,0.00219515955 C73.2441575,-0.0196134305 73.818065,0.213764979 74.2268897,0.642997827 C74.6713104,1.19841703 74.8875529,1.90159074 74.8318239,2.61011299 Z" id="Path"></path>
                    <path d="M102.938682,0.011806754 C104.925704,-0.0530120388 106.895258,0.401086281 108.652535,1.32918737 C110.22246,2.20648621 111.48422,3.54438732 112.266809,5.16156734 C113.121938,6.98710698 113.542809,8.98523698 113.496562,10.9999587 C113.514049,12.5234021 113.28619,14.0397535 112.821697,15.491029 C112.403228,16.7893815 111.716003,17.9854179 110.804602,19.0015489 C109.893616,19.9947157 108.764231,20.7633771 107.505265,21.2470841 C106.067748,21.7831026 104.540136,22.0372506 103.006168,21.9955958 C101.467976,22.0219708 99.9395032,21.7473364 98.5070715,21.1872031 C97.2410133,20.6869081 96.1052103,19.9063169 95.1852385,18.9042424 C94.2755802,17.8779743 93.5933249,16.6714911 93.1831404,15.363782 C92.7152137,13.9131306 92.4847992,12.3966244 92.5007774,10.8727117 C92.5010529,9.34466598 92.7544194,7.8271793 93.2506269,6.38164143 C93.6798998,5.0860648 94.37736,3.89510206 95.2977159,2.88609173 C96.2069771,1.9011764 97.3270412,1.13362542 98.574558,0.640556593 C99.976698,0.158828854 101.457305,-0.0544857163 102.938682,0.011806754 Z M109.12494,10.9999587 C109.162784,9.60769183 108.907322,8.22300793 108.37509,6.9355401 C107.926075,5.85965407 107.156428,4.94765569 106.170533,4.32323422 C105.199164,3.72836343 104.078142,3.42199545 102.938682,3.4399904 C102.110238,3.43150941 101.289554,3.59994724 100.531665,3.93400813 C99.7974746,4.25498362 99.1480288,4.74183965 98.6345459,5.35618039 C98.061151,6.05755328 97.6352546,6.86709483 97.3822973,7.73644763 C97.0605639,8.79147836 96.903752,9.88972797 96.9173907,10.9924736 C96.9038189,12.1074937 97.0605881,13.2180649 97.3822973,14.2859251 C97.6420618,15.1819404 98.0836179,16.0150691 98.6795369,16.7335584 C99.2067633,17.3516647 99.8649988,17.8450998 100.60665,18.178186 C101.358247,18.5063367 102.17086,18.6721405 102.991171,18.6647186 C104.06775,18.6711568 105.125631,18.3838642 106.050557,17.8338706 C107.043339,17.2249546 107.827724,16.3297409 108.300105,15.2664755 C108.889292,13.9231715 109.171071,12.4656492 109.12494,10.9999587 Z" id="Shape"></path>
                    <path d="M123.681764,18.3745281 L120.370622,4.61995448 L120.370622,19.5012084 C120.417422,20.1654754 120.229243,20.8245987 119.841709,21.3538035 C119.47594,21.7478989 118.972689,21.9703689 118.446972,21.9703689 C117.921254,21.9703689 117.418003,21.7478989 117.052234,21.3538035 C116.657914,20.8250029 116.466737,20.1617306 116.516076,19.4936468 L116.516076,2.41952517 C116.428599,1.69671879 116.702054,0.977534979 117.240614,0.513998754 C117.814802,0.155980411 118.478266,-0.0151502583 119.146151,0.0224939247 L120.443076,0.0224939247 C121.018583,-0.00984331311 121.595032,0.0643976839 122.145742,0.241780695 C122.499313,0.384150199 122.781924,0.670903437 122.928244,1.03575003 C123.169917,1.64079108 123.363773,2.26544583 123.507875,2.90346838 L126.514711,14.7298307 L129.521546,2.90346838 C129.664001,2.26587197 129.855415,1.64128114 130.093932,1.03575003 C130.237415,0.673312711 130.510186,0.383214106 130.854698,0.226657469 C131.405407,0.0492744584 131.981856,-0.0249665386 132.557364,0.00737069918 L133.854288,0.00737069918 C134.522299,-0.0316699646 135.18615,0.139560368 135.759825,0.498875528 C136.297248,0.963275282 136.570446,1.68178082 136.484364,2.40440194 L136.484364,19.5012084 C136.531164,20.1654754 136.342985,20.8245987 135.955451,21.3538035 C135.588051,21.7799281 135.054656,22.008165 134.506373,21.9738558 C133.984002,21.9914688 133.481537,21.7639536 133.136995,21.3538035 C132.743782,20.8273244 132.55263,20.1668332 132.600836,19.5012084 L132.600836,4.59726964 L129.296939,18.3745281 C129.079578,19.2667984 128.905689,19.9246587 128.768026,20.3405474 C128.623403,20.779219 128.374042,21.1721868 128.043487,21.4823509 C127.614933,21.8446907 127.072676,22.0279425 126.521956,21.9965406 C126.084844,22.0101157 125.65292,21.8948011 125.275749,21.6638296 C124.948708,21.4549931 124.677154,21.1637871 124.486002,20.816929 C124.291216,20.4582644 124.142611,20.0743521 124.044033,19.6751255 C123.906371,19.2365519 123.79769,18.80554 123.681764,18.3745281 Z" id="Path"></path>
                    <path d="M155.179147,3.25276818 L145.737725,3.25276818 L145.737725,8.40596059 L154.452884,8.40596059 C154.974096,8.35654661 155.494112,8.51204377 155.90541,8.84030109 C156.224432,9.13528412 156.397434,9.55885153 156.377481,9.99608853 C156.395501,10.4336468 156.226029,10.8577382 155.912673,11.1592377 C155.505688,11.4974566 154.984503,11.6612279 154.460147,11.6156633 L145.744988,11.6156633 L145.744988,17.5933665 L155.527753,17.5933665 C156.065902,17.5548806 156.599,17.7201393 157.023856,18.0571538 C157.356544,18.3857476 157.52928,18.8463745 157.495927,19.3160051 C157.511634,19.7734621 157.328429,20.2148469 156.994805,20.5233244 C156.569949,20.8603389 156.036851,21.0255977 155.498703,20.9871118 L144.089108,20.9871118 C143.376701,21.0574916 142.665944,20.8376476 142.113672,20.3760904 C141.6637,19.8162447 141.447382,19.1003195 141.510873,18.3810687 L141.510873,2.58285317 C141.497727,2.07769785 141.591845,1.57557891 141.786853,1.11051249 C141.954573,0.73660451 142.251729,0.438013403 142.622056,0.271278294 C143.082641,0.0810214366 143.577456,-0.00926023331 144.074583,0.00625697093 L155.164622,0.00625697093 C155.698476,-0.0345522125 156.228466,0.125303327 156.653461,0.45532088 C156.988143,0.756814388 157.172015,1.19440292 157.154583,1.64791684 C157.173649,2.09870249 156.995607,2.53506551 156.667987,2.84051279 C156.237956,3.15746927 155.708428,3.30409425 155.179147,3.25276818 Z" id="Path"></path>
                </g>
            </g>
        </g>
    </g>
</svg>