<?xml version="1.0" encoding="UTF-8"?>
<svg width="242px" height="305px" viewBox="0 0 242 305" version="1.1" xmlns="http://www.w3.org/2000/svg" xmlns:xlink="http://www.w3.org/1999/xlink">
    <!-- Generator: Sketch 52.2 (67145) - http://www.bohemiancoding.com/sketch -->
    <title>maintenance</title>
    <desc>Created with Sketch.</desc>
    <defs>
        <linearGradient x1="0.0328947368%" y1="49.986896%" x2="100.032895%" y2="49.986896%" id="linearGradient-1">
            <stop stop-color="#FFCC5D" offset="0%"></stop>
            <stop stop-color="#FFCF51" offset="9%"></stop>
            <stop stop-color="#FFD346" offset="23%"></stop>
            <stop stop-color="#FFD43F" offset="43%"></stop>
            <stop stop-color="#FFD53D" offset="100%"></stop>
        </linearGradient>
        <linearGradient x1="0.0353618421%" y1="49.961507%" x2="100.035362%" y2="49.961507%" id="linearGradient-2">
            <stop stop-color="#FFCC5D" offset="0%"></stop>
            <stop stop-color="#FFCF51" offset="9%"></stop>
            <stop stop-color="#FFD346" offset="23%"></stop>
            <stop stop-color="#FFD43F" offset="43%"></stop>
            <stop stop-color="#FFD53D" offset="100%"></stop>
        </linearGradient>
        <linearGradient x1="0.0252365931%" y1="49.9850158%" x2="100.025237%" y2="49.9850158%" id="linearGradient-3">
            <stop stop-color="#FFCC5D" offset="0%"></stop>
            <stop stop-color="#FFCF51" offset="9%"></stop>
            <stop stop-color="#FFD346" offset="23%"></stop>
            <stop stop-color="#FFD43F" offset="43%"></stop>
            <stop stop-color="#FFD53D" offset="100%"></stop>
        </linearGradient>
        <linearGradient x1="-0.209579457%" y1="50.0257092%" x2="99.8425226%" y2="50.0257092%" id="linearGradient-4">
            <stop stop-color="#FFCC5D" offset="0%"></stop>
            <stop stop-color="#FFCF51" offset="9%"></stop>
            <stop stop-color="#FFD346" offset="23%"></stop>
            <stop stop-color="#FFD43F" offset="43%"></stop>
            <stop stop-color="#FFD53D" offset="100%"></stop>
        </linearGradient>
        <linearGradient x1="0.0130626145%" y1="50.0093835%" x2="100.000703%" y2="50.0093835%" id="linearGradient-5">
            <stop stop-color="#FFCC5D" offset="0%"></stop>
            <stop stop-color="#FFCF51" offset="9%"></stop>
            <stop stop-color="#FFD346" offset="23%"></stop>
            <stop stop-color="#FFD43F" offset="43%"></stop>
            <stop stop-color="#FFD53D" offset="100%"></stop>
        </linearGradient>
        <linearGradient x1="0.00886171769%" y1="49.9949136%" x2="100.009934%" y2="49.9949136%" id="linearGradient-6">
            <stop stop-color="#FFCC5D" offset="0%"></stop>
            <stop stop-color="#FFCF51" offset="9%"></stop>
            <stop stop-color="#FFD346" offset="23%"></stop>
            <stop stop-color="#FFD43F" offset="43%"></stop>
            <stop stop-color="#FFD53D" offset="100%"></stop>
        </linearGradient>
        <linearGradient x1="0.00749135613%" y1="50.0058911%" x2="100.000672%" y2="50.0058911%" id="linearGradient-7">
            <stop stop-color="#FFCB5E" offset="0%"></stop>
            <stop stop-color="#FFCE51" offset="9%"></stop>
            <stop stop-color="#FFD246" offset="23%"></stop>
            <stop stop-color="#FFD43F" offset="43%"></stop>
            <stop stop-color="#FFD43E" offset="100%"></stop>
        </linearGradient>
        <linearGradient x1="-0.0154877854%" y1="50.0022124%" x2="99.9746128%" y2="50.0022124%" id="linearGradient-8">
            <stop stop-color="#FFCB5E" offset="0%"></stop>
            <stop stop-color="#FFCE51" offset="9%"></stop>
            <stop stop-color="#FFD246" offset="23%"></stop>
            <stop stop-color="#FFD43F" offset="43%"></stop>
            <stop stop-color="#FFD43E" offset="100%"></stop>
        </linearGradient>
        <linearGradient x1="0.0174094708%" y1="49.9750173%" x2="99.9958217%" y2="49.9750173%" id="linearGradient-9">
            <stop stop-color="#FFCB5E" offset="0%"></stop>
            <stop stop-color="#FFCE51" offset="9%"></stop>
            <stop stop-color="#FFD246" offset="23%"></stop>
            <stop stop-color="#FFD43F" offset="43%"></stop>
            <stop stop-color="#FFD43E" offset="100%"></stop>
        </linearGradient>
        <linearGradient x1="-0.0501138952%" y1="49.9931663%" x2="99.9965831%" y2="49.9931663%" id="linearGradient-10">
            <stop stop-color="#FFCB5E" offset="0%"></stop>
            <stop stop-color="#FFCE51" offset="9%"></stop>
            <stop stop-color="#FFD246" offset="23%"></stop>
            <stop stop-color="#FFD43F" offset="43%"></stop>
            <stop stop-color="#FFD43E" offset="100%"></stop>
        </linearGradient>
        <linearGradient x1="-0.0523917995%" y1="49.9908884%" x2="99.9943052%" y2="49.9908884%" id="linearGradient-11">
            <stop stop-color="#FFCB5E" offset="0%"></stop>
            <stop stop-color="#FFCE51" offset="9%"></stop>
            <stop stop-color="#FFD246" offset="23%"></stop>
            <stop stop-color="#FFD43F" offset="43%"></stop>
            <stop stop-color="#FFD43E" offset="100%"></stop>
        </linearGradient>
    </defs>
    <g id="Page-1" stroke="none" stroke-width="1" fill="none" fill-rule="evenodd">
        <g id="Success" transform="translate(-72.000000, -115.000000)">
            <g id="maintenance" transform="translate(72.000000, 115.000000)">
                <circle id="Oval" fill="#FFF6CE" fill-rule="nonzero" cx="120.78" cy="178.77" r="120.42"></circle>
                <path d="M55.85,82.59 L59.22,79.22 L55.88,75.88 L58.61,73.15 L61.94,76.5 L65.29,73.15 L68.01,75.88 L64.67,79.22 L68.01,82.56 L65.29,85.28 L61.94,82 L58.58,85.36 L55.85,82.59 Z M65.29,84.38 L67.1,82.56 L63.8,79.22 L67.14,75.88 L65.33,74.06 L61.94,77.4 L58.61,74.06 L56.8,75.88 L60.13,79.22 L56.8,82.59 L58.62,84.4 L61.94,81 L65.29,84.38 Z" id="Shape" fill="url(#linearGradient-1)" fill-rule="nonzero"></path>
                <path d="M22.42,194.36 L25.79,190.99 L22.45,187.65 L25.18,184.92 L28.51,188.27 L31.86,184.92 L34.58,187.65 L31.24,190.99 L34.58,194.33 L31.86,197.05 L28.51,193.77 L25.15,197.13 L22.42,194.36 Z M31.86,196.15 L33.67,194.33 L30.37,190.99 L33.71,187.65 L31.9,185.83 L28.51,189.17 L25.18,185.83 L23.37,187.65 L26.7,190.99 L23.37,194.36 L25.19,196.17 L28.51,192.77 L31.86,196.15 Z" id="Shape" fill="url(#linearGradient-2)" fill-rule="nonzero"></path>
                <path d="M68.78,142.9 C72.28,142.9 75.12,145.74 75.12,149.24 C75.12,152.74 72.28,155.58 68.78,155.58 C65.28,155.58 62.44,152.74 62.44,149.24 C62.44,149.24 62.44,149.23 62.44,149.23 C62.45,145.73 65.29,142.9 68.78,142.9 Z M72.78,149.23 C72.78,147.02 70.99,145.23 68.78,145.23 C66.57,145.23 64.78,147.02 64.78,149.23 C64.78,151.44 66.57,153.23 68.78,153.23 C70.98,153.21 72.75,151.43 72.75,149.23 L72.78,149.23 Z" id="Shape" fill="url(#linearGradient-3)" fill-rule="nonzero"></path>
                <g id="Group" transform="translate(157.000000, 57.000000)" fill-rule="nonzero">
                    <path d="M34.2,35.54 L13.12,10.41 C14.75,7.16 13.44,3.21 10.2,1.58 C8.7,0.83 6.97,0.67 5.36,1.15 L9.24,5.78 L8.65,9.14 L5.25,9.14 L1.37,4.5 C-0.26,7.75 1.05,11.7 4.29,13.33 C5.79,14.08 7.52,14.24 9.13,13.76 L30.21,38.91 C28.58,42.16 29.89,46.11 33.13,47.74 C36.38,49.37 40.33,48.06 41.96,44.82 C43.59,41.57 42.28,37.62 39.04,35.99 C37.54,35.24 35.81,35.08 34.21,35.56 L34.2,35.54 Z M39.9,43.15 L36.77,45.81 L32.87,44.4 L32.15,40.31 L35.33,37.64 L39.23,39.06 L39.9,43.15 Z" id="Shape" fill="#C4BEBD"></path>
                    <path d="M31,35.77 C30.39,36.25 29.51,36.17 29,35.59 L12.5,15.99 C12.02,15.38 12.1,14.51 12.68,13.99 C13.29,13.5 14.17,13.58 14.68,14.17 L31.13,33.77 C31.62,34.37 31.56,35.24 31,35.77 Z" id="Path" fill="#D5D3D2"></path>
                </g>
                <g id="Group" transform="translate(10.000000, 107.000000)" fill-rule="nonzero">
                    <polygon id="Path" fill="#C4BEBD" points="21.38 42.06 20.06 40.02 22.49 39.89 23.78 39.82 24.02 39.36 23.31 38.28 21.98 36.23 24.42 36.1 25.71 36.04 25.95 35.58 25.24 34.49 23.91 32.45 26.35 32.32 27.64 32.25 27.87 31.79 27.17 30.71 25.84 28.66 28.27 28.53 29.57 28.47 29.8 28.01 29.1 26.92 27.77 24.88 30.2 24.75 31.5 24.68 31.73 24.22 31.03 23.14 29.7 21.09 32.13 20.96 33.43 20.9 33.66 20.44 32.95 19.35 31.63 17.31 34.06 17.18 35.35 17.11 35.59 16.65 34.88 15.56 33.56 13.52 35.99 13.39 37.28 13.33 37.52 12.87 36.81 11.78 35.48 9.74 37.92 9.61 39.21 9.54 39.45 9.08 38.74 8 37.41 5.95 39.85 5.82 41.14 5.75 41.34 5.36 31.53 0.36 5.51 35.34 21.83 43.66 22.09 43.15"></polygon>
                    <path d="M18.91,43.94 L7,37.87 L4.79,36.75 L0.32,45.61 C0.01,46.22 0.25,46.97 0.86,47.28 C1.47,47.59 2.22,47.35 2.53,46.74 L3.77,44.29 C3.87,48.49 7.36,51.8 11.56,51.7 C13.04,51.66 14.47,51.2 15.68,50.36 L14.44,52.8 C14.08,53.38 14.27,54.15 14.85,54.5 C15.43,54.86 16.2,54.67 16.55,54.09 C16.58,54.04 16.61,53.98 16.63,53.93 L21.14,45.08 L18.91,43.94 Z M14.64,48.15 C14.28,48.88 13.65,49.45 12.89,49.73 C10.06,50.75 6.94,49.27 5.92,46.44 C5.91,46.41 5.9,46.38 5.89,46.35 C5.61,45.51 5.68,44.58 6.08,43.79 L7.54,40.94 C7.75,40.5 8.28,40.32 8.72,40.54 C8.73,40.54 8.73,40.55 8.74,40.55 L15.68,44.08 C16.12,44.31 16.3,44.85 16.08,45.29 L14.64,48.15 Z" id="Shape" fill="url(#linearGradient-4)"></path>
                </g>
                <g id="Group" transform="translate(190.000000, 133.000000)" fill-rule="nonzero">
                    <rect id="Rectangle" fill="#434343" transform="translate(18.438915, 37.795707) rotate(-68.489035) translate(-18.438915, -37.795707) " x="12.5435823" y="35.3905706" width="11.7906664" height="4.81027188"></rect>
                    <path d="M30.06,0.33 L35.52,2.48 C37.52,3.27 38.51,5.54 37.72,7.54 C37.69,7.61 37.66,7.67 37.63,7.74 L25.63,32.74 C25.28,33.49 24.4,33.84 23.63,33.54 L17.56,31.1 C16.76,30.79 16.36,29.9 16.65,29.1 L24.93,2.67 C25.63,0.64 27.84,-0.44 29.88,0.26 C29.94,0.28 30,0.31 30.06,0.33 Z" id="Path" fill="url(#linearGradient-5)"></path>
                    <path d="M0.71,45.24 C1.37,48.27 3.53,50.76 6.44,51.84 L17.63,56.25 C18.7,56.69 19.92,56.18 20.36,55.11 C20.36,55.11 20.36,55.1 20.36,55.1 L21.26,52.81 L23.55,53.72 L22.68,55.94 C22.24,57.04 22.77,58.29 23.88,58.73 C23.88,58.73 23.89,58.73 23.89,58.74 L25.46,59.36 C26.57,59.8 27.82,59.25 28.26,58.14 L31.18,50.73 C31.62,49.62 31.07,48.37 29.96,47.93 L28.36,47.28 C27.25,46.84 26,47.39 25.56,48.5 L24.68,50.72 L22.39,49.82 L23.03,48.2 C23.45,47.13 22.92,45.92 21.85,45.49 L10.68,41.1 C6.61,39.5 6.25,36.94 6.73,34.63 C6.82,34.18 6.53,33.74 6.08,33.65 C5.81,33.6 5.53,33.68 5.33,33.88 C2.91,36.28 -0.43,40.55 0.71,45.24 Z" id="Path" fill="#C4BEBD"></path>
                </g>
                <g id="Group" transform="translate(90.000000, 0.000000)" fill-rule="nonzero">
                    <path d="M24.55,12.72 C22.84,9.83 19.11,8.87 16.22,10.58 C16.22,10.58 16.21,10.58 16.21,10.59 L14.47,11.59 L8.94,2.26 C7.65,0.08 4.84,-0.65 2.65,0.64 C2.65,0.64 2.65,0.64 2.65,0.64 C0.46,1.93 -0.26,4.75 1.03,6.94 L6.56,16.27 L4.81,17.27 C1.92,18.98 0.96,22.71 2.67,25.6 C2.67,25.6 2.67,25.6 2.67,25.6 L24.55,12.72 Z" id="Path" fill="url(#linearGradient-6)"></path>
                    <rect id="Rectangle" fill="#434343" transform="translate(14.121930, 20.067420) rotate(-30.616895) translate(-14.121930, -20.067420) " x="1.41181021" y="19.0574105" width="25.4202396" height="2.02001904"></rect>
                    <rect id="Rectangle" fill="#434343" transform="translate(16.624676, 24.285702) rotate(-30.616895) translate(-16.624676, -24.285702) " x="3.91455621" y="23.2756925" width="25.4202396" height="2.02001904"></rect>
                    <rect id="Rectangle" fill="#C4BEBD" transform="translate(15.389920, 22.300641) rotate(-30.670932) translate(-15.389920, -22.300641) " x="3.00508088" y="20.8656596" width="24.7696782" height="2.86996272"></rect>
                    <rect id="Rectangle" fill="#C4BEBD" transform="translate(21.150553, 31.916651) rotate(-30.616895) translate(-21.150553, -31.916651) " x="8.44043321" y="24.0465768" width="25.4202396" height="15.7401483"></rect>
                    <polygon id="Path" fill="#ADABAB" points="14.21 45.16 36.09 32.21 34.92 30.25 30.56 24.72 34.35 32.34 30.94 28.59 32.89 32.91 27.25 24.63 32.07 33.52 26.86 26.9 30.66 34.53 27.25 30.78 29 34.69 23.62 26.78 28.33 35.45 23.27 29.03 27.07 36.66 25.24 34.37 26.53 37.36 22.62 31.7 25.56 37.67 23.68 35.3 24.89 38.11 19.49 31.27 23.15 38.62 17.54 30.38 22.4 39.33 19.04 35.63 21.27 40.59 15.69 33.52 19.75 41.66 17.56 38.92 18.94 42.12 15.14 37.94 16.97 42.02 12 35.7 15.57 42.89 10.06 34.8 14.03 42.11 9.94 36.92 13.21 43.48"></polygon>
                </g>
                <g id="Group" transform="translate(35.000000, 70.000000)">
                    <g transform="translate(2.000000, 0.000000)" fill-rule="nonzero">
                        <g transform="translate(0.000000, 79.000000)">
                            <rect id="Rectangle" fill="#E2AE7E" x="69.24" y="0.24" width="32.48" height="30.31"></rect>
                            <g transform="translate(0.000000, 11.000000)" id="Path">
                                <path d="M138.96,76.8 L136.06,78.49 L136.24,83.05 L136.8,96.38 L136.06,125.27 L35.66,126.5 L34.14,96.87 L34.73,83.05 L34.91,78.49 L31.81,76.67 L11.17,64.65 L32.63,17.14 C33.96,15.29 35.65,13.86 37.55,12.86 C37.55,12.84 37.55,12.84 37.58,12.84 C38.38,12.4 39.22,12.04 40.09,11.79 C41.32,11.28 42.63,10.71 43.99,10.15 C44.14,10.07 44.32,10.02 44.5,9.94 C45.37,9.58 46.27,9.25 47.17,8.89 C50.4,7.61 53.79,6.3 56.89,5.12 C63.71,2.56 69.25,0.56 69.25,0.56 C69.25,6.79 77.38,9.92 85.48,9.92 C93.61,9.92 101.73,6.79 101.73,0.56 C101.73,0.56 107.27,2.56 114.06,5.12 C117.19,6.3 120.55,7.61 123.78,8.89 C124.7,9.25 125.58,9.58 126.45,9.94 C126.63,10.02 126.81,10.07 126.96,10.15 C128.32,10.71 129.63,11.28 130.86,11.79 C131.73,12.05 132.58,12.4 133.4,12.84 C133.4,12.84 133.43,12.84 133.43,12.86 C135.3,13.86 137.02,15.29 138.35,17.14 L159.78,64.65 L138.96,76.8 Z" fill="#0D1725"></path>
                                <polygon fill="#FCC88F" points="34.91 78.49 34.01 96.87 33.58 96.77 0.01 89.34 11.17 64.65 31.81 76.67"></polygon>
                                <polygon fill="#FCC88F" points="170.93 89.34 155.29 92.57 136.81 96.39 136.24 83.05 136.06 78.49 138.96 76.8 159.78 64.65"></polygon>
                                <path d="M137.46,126.59 C137.46,126.59 115.58,139.19 83.77,139.19 C53.93,139.19 33.34,128.21 33.34,128.21 L34.13,96.87 L34.7,83.05 L34.83,83.05 C42.93,82.64 49.09,75.64 48.47,67.56 L47.34,53.07 L43.98,10.12 C44.13,10.04 44.31,9.99 44.49,9.91 C45.36,9.55 46.26,9.22 47.16,8.86 C50.39,7.58 53.78,6.27 56.88,5.09 L60.6,52.86 L110.37,52.86 L114.06,5.09 C117.19,6.27 120.55,7.58 123.78,8.86 C124.7,9.22 125.58,9.55 126.45,9.91 C126.63,9.99 126.81,10.04 126.96,10.12 L123.96,48.58 L122.5,67.55 C121.86,75.63 128.04,82.63 136.11,83.04 L136.26,83.04 L136.8,96.37 L137.46,126.59 Z" fill="url(#linearGradient-7)"></path>
                            </g>
                        </g>
                        <path d="M155.29,182.57 L136.8,186.39 L137.46,216.59 C137.46,216.59 115.58,229.19 83.42,229.19 C52.87,229.19 33.35,218.21 33.35,218.21 L34.14,186.87 L34.71,173.05 L34.73,173.05 L34.91,168.49 L34.01,186.87 L33.57,186.77 L33.65,186.46 L15.34,182.67 L11.72,172.29 C18.72,172.27 25.67,170.85 31.49,166.88 C31.51,166.91 31.51,166.91 31.51,166.88 C31.61,166.8 31.69,166.75 31.79,166.67 C39.15,161.57 44.66,152.29 46.3,136.57 C46.66,138.78 46.99,140.93 47.33,143.08 C51.15,168.11 54.28,189 84.95,189.11 L85.62,189.11 C118.13,189.01 119.72,165.55 123.95,138.6 C124.05,137.93 124.18,137.24 124.28,136.57 C125.95,152.39 131.51,161.7 138.95,166.8 C139,166.83 139.03,166.85 139.08,166.88 C139.08,166.91 139.08,166.91 139.11,166.88 C144.93,170.85 151.88,172.27 158.88,172.29 L155.29,182.57 Z" id="Path" fill="#060606" opacity="0.1"></path>
                        <g transform="translate(51.000000, 3.000000)" id="Path">
                            <path d="M34.48,4.1 C17.77,4.14 4.51,15.22 5.88,35.02 C6.04,37.31 6.31,39.51 6.78,41.82 C3.05,39.74 -0.19,43.44 1.15,49.06 C2.1,53.03 4.07,58.35 6.27,59.13 C8.91,60.08 9.71,58.43 9.86,58.38 C11.07,64.1 11.58,69.2 13.64,72.23 C16.08,75.81 17.96,78.5 19.7,80.52 C23.66,85.11 26.93,86.23 34.43,86.23 C34.44,86.23 34.46,86.23 34.47,86.23 C34.49,86.23 34.5,86.23 34.51,86.23 C42.01,86.23 45.28,85.11 49.24,80.52 C50.98,78.49 52.86,75.8 55.3,72.23 C57.36,69.2 57.87,64.1 59.08,58.38 C59.23,58.43 60.02,60.08 62.67,59.13 C64.88,58.34 66.85,53.02 67.79,49.06 C69.13,43.43 65.9,39.74 62.16,41.82 C62.63,39.51 62.9,37.32 63.06,35.02 C64.45,15.22 51.19,4.14 34.48,4.1 Z" fill="#FCC88F"></path>
                            <path d="M64.28,41.15 C64.28,41.17 64.26,41.2 64.26,41.22 L64.26,41.24 C61.73,42.64 60.4,44.49 59.39,52.14 C57.56,52.64 56.77,52.75 55.1,53.31 C55.8,50.55 56.38,47.96 56.84,45.55 C58.83,35.22 58.85,28.04 57.79,23.02 C56.39,16.39 53.14,13.56 50.15,12.22 C48.17,11.34 46.32,11.11 45.21,10.89 C41.69,10.19 27.25,10.19 23.73,10.89 C20.96,11.45 13.47,11.99 11.15,23.02 C10.79,24.69 10.56,26.63 10.49,28.84 C10.33,33.19 10.78,38.63 12.09,45.45 C12.58,47.9 13.15,50.5 13.85,53.3 C12.18,52.74 11.39,52.64 9.58,52.13 C8.57,44.48 7.23,42.63 4.71,41.23 L4.71,41.21 C4.71,41.19 4.69,41.16 4.69,41.14 C3.43,33.66 3.25,27.87 4.15,23.01 C5.07,17.89 7.17,13.83 10.44,9.99 C21.83,-3.45 50.8,-1.31 58.51,9.99 C61.31,14.09 63.41,18.09 64.47,23.01 C65.5,27.85 65.54,33.57 64.28,41.15 Z" fill="#643114"></path>
                            <path d="M44.45,4.11 C46.57,4.12 49,4.26 50.33,5.91 C51.98,7.96 50.95,11.02 49.59,13.27 C44.08,22.41 35.45,30.9 23.27,31.32 C24.6,30.28 26.88,28.21 27.32,26.27 C20.77,29.21 13.2,29.87 6.24,28.1 C8.38,22.13 10.66,15.92 15.26,11.56 C19,8.01 23.98,6.01 29.05,5.05 C34.11,4.08 39.3,4.09 44.45,4.11 Z" fill="#643114"></path>
                        </g>
                        <path d="M85.12,84.46 C85.08,84.46 85.04,84.46 85,84.46 L85.24,84.46 C85.2,84.46 85.16,84.46 85.12,84.46 Z" id="Path" fill="#FCC178"></path>
                        <path d="M85.36,84.46 C85.4,84.46 85.44,84.46 85.48,84.46 L85.24,84.46 C85.28,84.46 85.32,84.46 85.36,84.46 Z" id="Path" fill="#FCC178"></path>
                        <path d="M120.16,95.16 C120.18,95.2 120.21,95.26 120.24,95.3 L120.24,95.1 C120.21,95.12 120.18,95.14 120.16,95.16 Z" id="Path" fill="#141414"></path>
                        <path d="M85.12,84.6 C85.08,84.6 85.04,84.6 85,84.6 L85.24,84.6 C85.2,84.6 85.16,84.6 85.12,84.6 Z" id="Path" fill="#FCC178"></path>
                        <path d="M115.28,44.15 C115.24,44.18 115.21,44.2 115.17,44.22 L115.15,44.22 C112.71,45.87 110.3,47.31 107.84,48.55 C93.29,55.95 78.38,56.16 63.09,48.46 C60.68,47.26 58.28,45.84 55.83,44.22 L55.81,44.22 C55.77,44.2 55.72,44.17 55.69,44.15 C54.43,36.67 54.25,30.88 55.15,26.02 L115.47,26.02 C116.5,30.85 116.54,36.57 115.28,44.15 Z" id="Path" fill="#060606" opacity="0.1"></path>
                        <path d="M89.89,0.54 L81.08,0.54 C66.22,0.54 54.18,12.59 54.18,27.44 L54.77,36.7 C75.49,32.77 95.23,32.46 116.26,36.34 L116.81,27.44 C116.79,12.59 104.75,0.54 89.89,0.54 Z" id="Path" fill="url(#linearGradient-8)"></path>
                        <path d="M78.98,4.49 C67.24,5.55 58.02,15.42 58.01,27.2 L58.32,32.16 C61.91,29.38 64.9,27.89 68.49,27.52 C65.59,16.79 70.7,9.51 78.98,4.49 Z" id="Path" fill="#FFFFFF" opacity="0.31"></path>
                        <path d="M56.78,35.83 C57.48,38.16 57.44,37.53 57.77,38.29 C59.78,43 64.8,45.89 69.43,45 C72.24,44.46 74.72,42.73 77.36,41.54 C79.94,40.38 82.7,39.73 85.48,39.61 C88.26,39.73 91.03,40.37 93.61,41.54 C96.25,42.74 98.73,44.46 101.54,45 C106.18,45.89 111.19,43 113.2,38.29 C113.53,37.52 113.49,38.16 114.19,35.83 C105.11,24.72 66.23,24.78 56.78,35.83 Z" id="Path" fill="#F4BB3F"></path>
                    </g>
                    <g transform="translate(69.000000, 45.000000)" fill-rule="nonzero">
                        <ellipse id="Oval" fill="#221F1F" cx="7.48" cy="7.8" rx="2.52" ry="3.51"></ellipse>
                        <path d="M3.1,1.37 C3.1,1.37 7.12,-0.94 13.34,1.06 C15.29,2.11 14.37,4.37 12.1,3.72 C6.45,2.11 2.9,3.05 0.83,4.52 C-0.71,3.39 3.1,1.37 3.1,1.37 Z" id="Path" fill="#643114"></path>
                    </g>
                    <g transform="translate(91.000000, 45.000000)" fill-rule="nonzero">
                        <ellipse id="Oval" fill="#221F1F" cx="7.08" cy="7.8" rx="2.52" ry="3.51"></ellipse>
                        <path d="M11.46,1.37 C11.46,1.37 7.44,-0.94 1.22,1.06 C-0.73,2.11 0.19,4.37 2.46,3.72 C8.11,2.11 11.66,3.05 13.73,4.52 C15.27,3.39 11.46,1.37 11.46,1.37 Z" id="Path" fill="#643114"></path>
                    </g>
                    <path d="M87.17,52.91 C87.17,52.91 86.28,59.13 85.97,63.31 C85.71,66.79 88.41,67.37 91.21,67.37 C91.21,67.37 91.48,67.88 90.22,68.79 C89.28,69.46 84.05,69.64 83.44,66.8 C82.24,61.26 87.17,52.91 87.17,52.91 Z" id="Path" fill="#D39867" fill-rule="nonzero"></path>
                    <g transform="translate(78.000000, 70.000000)" fill-rule="nonzero" id="Path">
                        <path d="M0.25,2.34 C0.25,2.34 9.8,4.82 17.79,0.39 C17.79,0.39 18.21,9.96 7.66,8.86 C0.19,8.08 0.2,3.85 0.25,2.34 Z" fill="#3C3C3B"></path>
                        <path d="M17.79,0.39 C9.81,4.82 0.25,2.34 0.25,2.34 C0.24,2.55 0.24,2.8 0.25,3.09 C0.26,3.1 6.51,7.91 17.07,4.19 C17.87,2.22 17.79,0.39 17.79,0.39 Z" fill="#FFFFFF"></path>
                    </g>
                    <g transform="translate(0.000000, 128.000000)">
                        <path d="M75.41,40.08 C75.41,40.05 75.4,40.02 75.39,39.99 C74.97,37.66 72.43,35.97 69.84,36.31 C61.47,37.51 53.45,39.44 45.85,41.97 L45.85,51.02 C53.93,48.14 62.56,46 71.63,44.77 C74.1,44.47 75.84,42.41 75.41,40.08 Z" id="Path" fill="#924009"></path>
                        <g transform="translate(26.000000, 0.000000)" fill-rule="nonzero">
                            <path d="M34.82,4 L34.82,87.88 C34.82,92.21 31.31,95.73 26.97,95.73 L0.93,95.73 L0.93,106.42 L31.01,106.42 C39.01,106.42 45.5,99.94 45.5,91.93 L45.5,4 L34.82,4 Z" id="Path" fill="#3D3D3C"></path>
                            <g transform="translate(31.000000, 0.000000)">
                                <path d="M2.08,5.14 C3.11,5.14 3.94,5.97 3.94,7 L3.94,20.03 C3.94,21.06 3.11,21.89 2.08,21.89 C1.05,21.89 0.22,21.06 0.22,20.03 L0.22,7 C0.22,5.98 1.05,5.14 2.08,5.14 Z" id="Path" fill="#A3A39F"></path>
                                <path d="M16.24,5.14 C17.27,5.14 18.1,5.97 18.1,7 L18.1,20.03 C18.1,21.06 17.27,21.89 16.24,21.89 C15.21,21.89 14.38,21.06 14.38,20.03 L14.38,7 C14.38,5.98 15.22,5.14 16.24,5.14 Z" id="Path" fill="#A3A39F"></path>
                                <rect id="Rectangle" fill="#575757" x="2.08" y="4" width="14.17" height="19.03"></rect>
                                <path d="M18.21,2.26 C18.21,3.37 17.31,4.27 16.2,4.27 L2.12,4.27 C1.01,4.27 0.11,3.37 0.11,2.26 C0.11,1.15 1.01,0.25 2.12,0.25 L16.19,0.25 C17.31,0.25 18.21,1.15 18.21,2.26 Z" id="Path" fill="#A3A39F"></path>
                                <path d="M9.16,5.14 C10.19,5.14 11.02,5.97 11.02,7 L11.02,20.03 C11.02,21.06 10.19,21.89 9.16,21.89 C8.13,21.89 7.3,21.06 7.3,20.03 L7.3,7 C7.3,5.98 8.13,5.14 9.16,5.14 Z" id="Path" fill="#A3A39F"></path>
                                <path d="M18.21,25.05 C18.21,26.16 17.31,27.06 16.2,27.06 L2.12,27.06 C1.01,27.06 0.11,26.16 0.11,25.05 C0.11,23.94 1.01,23.04 2.12,23.04 L16.19,23.04 C17.31,23.03 18.21,23.94 18.21,25.05 Z" id="Path" fill="#A3A39F"></path>
                            </g>
                        </g>
                        <path d="M60.59,45.48 L60.59,45.4 C60.59,43.25 62.34,41.5 64.49,41.5 L78.05,41.5 C80.2,41.5 81.95,43.25 81.95,45.4 L81.95,45.48 C81.95,47.63 80.21,49.37 78.05,49.37 L64.49,49.37 C62.34,49.37 60.59,47.63 60.59,45.48 Z" id="Path" fill="#924009"></path>
                        <path d="M60.59,53.35 L60.59,53.27 C60.59,51.12 62.34,49.37 64.49,49.37 L79.01,49.37 C81.16,49.37 82.91,51.12 82.91,53.27 L82.91,53.35 C82.91,55.5 81.16,57.25 79.01,57.25 L64.49,57.25 C62.34,57.25 60.59,55.5 60.59,53.35 Z" id="Path" fill="#924009"></path>
                        <path d="M60.59,61.23 L60.59,61.15 C60.59,59 62.34,57.25 64.49,57.25 L76.66,57.25 C78.81,57.25 80.56,58.99 80.56,61.15 L80.56,61.23 C80.56,63.38 78.81,65.13 76.66,65.13 L64.49,65.13 C62.34,65.13 60.59,63.38 60.59,61.23 Z" id="Path" fill="#924009"></path>
                        <path d="M60.59,68.59 L60.59,68.52 C60.59,66.61 62.14,65.06 64.05,65.06 L74.86,65.06 C76.77,65.06 78.32,66.61 78.32,68.52 L78.32,68.59 C78.32,70.5 76.77,72.05 74.86,72.05 L64.05,72.05 C62.14,72.05 60.59,70.5 60.59,68.59 Z" id="Path" fill="#924009"></path>
                        <path d="M33.78,45.32 C33.78,45.32 19.67,42.33 14.89,41.9 C7.08,41.2 0.69,48.38 0.69,56.39 L0.69,56.68 C0.69,64.68 7.09,71.97 14.89,71.17 C19.69,70.67 33.78,67.22 33.78,67.22 L33.78,45.32 Z" id="Path" fill="#FCC88F" fill-rule="nonzero"></path>
                        <path d="M70.57,45.48 L70.57,45.4 C70.57,43.25 68.82,41.5 66.67,41.5 L58.67,41.5 L57.25,41.5 L49.3,41.5 C45.85,41.5 42.77,43.03 40.66,45.44 L30.89,44.72 C27.63,52.16 27.78,60.13 30.89,68.55 L39.94,67.27 C42.02,70.2 45.43,72.12 49.3,72.12 L57.26,72.12 L58.68,72.12 L64.23,72.12 C66.14,72.12 67.69,70.57 67.69,68.66 L67.69,68.59 C67.69,66.68 66.14,65.13 64.23,65.13 L65.5,65.13 C67.65,65.13 69.4,63.38 69.4,61.23 L69.4,61.15 C69.4,59 67.66,57.25 65.5,57.25 L66.68,57.25 C68.83,57.25 70.58,55.5 70.58,53.35 L70.58,53.27 C70.58,51.12 68.83,49.37 66.68,49.37 C68.83,49.37 70.57,47.63 70.57,45.48 Z" id="Path" fill="#A74B13"></path>
                    </g>
                    <g transform="translate(92.000000, 120.000000)">
                        <path d="M7.51,46.03 C7.51,46 7.52,45.97 7.53,45.94 C7.95,43.61 10.49,41.92 13.08,42.27 C21.45,43.47 29.48,45.4 37.07,47.93 L37.07,56.98 C28.99,54.11 20.36,51.96 11.29,50.73 C8.83,50.42 7.09,48.36 7.51,46.03 Z" id="Path" fill="#924009"></path>
                        <path d="M49.14,51.26 C49.14,51.26 63.25,48.27 68.03,47.84 C75.84,47.14 82.23,54.33 82.23,62.33 L82.23,62.62 C82.23,70.62 75.83,77.92 68.03,77.11 C63.23,76.61 49.14,73.16 49.14,73.16 L49.14,51.26 Z" id="Path" fill="#FCC88F" fill-rule="nonzero"></path>
                        <g transform="translate(6.000000, 0.000000)" fill-rule="nonzero">
                            <g>
                                <path d="M21.7,8.83 L21.7,8.81 C21.69,7.87 21.51,6.91 21.14,5.99 C19.74,2.43 16.21,-0.4 10.72,1.46 L2.27,3.87 C0.93,4.26 0,5.48 0,6.88 L0,8 L12.66,8 L14.05,12.69 L14.05,23.27 L20.61,23.27 L21.58,10.18 C21.67,9.72 21.7,9.28 21.7,8.83 Z" id="Path" fill="#3D3D3C"></path>
                                <path d="M15.67,21.65 L15.67,12.45 L13.87,6.39 L1.7,6.39 C1.86,5.93 2.23,5.55 2.72,5.41 L11.2,2.99 L11.24,2.98 C12.23,2.64 13.17,2.47 14.04,2.47 C17.64,2.47 19.16,5.34 19.65,6.57 C19.94,7.29 20.09,8.05 20.1,8.83 L20.1,8.91 C20.1,9.24 20.07,9.57 20.02,9.91 L20.01,9.98 L19.14,21.65 L15.67,21.65 Z" id="Path" fill="#727372"></path>
                                <circle id="Oval" fill="#3D3D3C" cx="0.5" cy="7.98" r="1"></circle>
                                <path d="M1.98,7.98 C1.98,7.71 1.76,7.49 1.49,7.49 C1.22,7.49 1,7.71 1,7.98 C1,8.25 1.22,8.47 1.49,8.47 C1.76,8.47 1.98,8.25 1.98,7.98 Z" id="Path" fill="#3D3D3C"></path>
                                <path d="M2.96,7.98 C2.96,7.71 2.74,7.49 2.47,7.49 C2.2,7.49 1.98,7.71 1.98,7.98 C1.98,8.25 2.2,8.47 2.47,8.47 C2.74,8.47 2.96,8.25 2.96,7.98 Z" id="Path" fill="#3D3D3C"></path>
                                <path d="M3.95,7.98 C3.95,7.71 3.73,7.49 3.46,7.49 C3.19,7.49 2.97,7.71 2.97,7.98 C2.97,8.25 3.19,8.47 3.46,8.47 C3.73,8.47 3.95,8.25 3.95,7.98 Z" id="Path" fill="#3D3D3C"></path>
                                <circle id="Oval" fill="#3D3D3C" cx="4.44" cy="7.98" r="1"></circle>
                                <path d="M5.92,7.98 C5.92,7.71 5.7,7.49 5.43,7.49 C5.16,7.49 4.94,7.71 4.94,7.98 C4.94,8.25 5.16,8.47 5.43,8.47 C5.7,8.47 5.92,8.25 5.92,7.98 Z" id="Path" fill="#3D3D3C"></path>
                                <circle id="Oval" fill="#3D3D3C" cx="6.41" cy="7.98" r="1"></circle>
                                <circle id="Oval" fill="#3D3D3C" cx="7.4" cy="7.98" r="1"></circle>
                                <path d="M8.87,7.98 C8.87,7.71 8.65,7.49 8.38,7.49 C8.11,7.49 7.89,7.71 7.89,7.98 C7.89,8.25 8.11,8.47 8.38,8.47 C8.65,8.47 8.87,8.25 8.87,7.98 Z" id="Path" fill="#3D3D3C"></path>
                                <path d="M9.86,7.98 C9.86,7.71 9.64,7.49 9.37,7.49 C9.1,7.49 8.88,7.71 8.88,7.98 C8.88,8.25 9.1,8.47 9.37,8.47 C9.64,8.47 9.86,8.25 9.86,7.98 Z" id="Path" fill="#3D3D3C"></path>
                                <path d="M10.84,7.98 C10.84,7.71 10.62,7.49 10.35,7.49 C10.08,7.49 9.86,7.71 9.86,7.98 C9.86,8.25 10.08,8.47 10.35,8.47 C10.62,8.47 10.84,8.25 10.84,7.98 Z" id="Path" fill="#3D3D3C"></path>
                                <path d="M11.83,7.98 C11.83,7.71 11.61,7.49 11.34,7.49 C11.07,7.49 10.85,7.71 10.85,7.98 C10.85,8.25 11.07,8.47 11.34,8.47 C11.61,8.47 11.83,8.25 11.83,7.98 Z" id="Path" fill="#3D3D3C"></path>
                            </g>
                            <path d="M8.64,23.26 L5.9,28.64 C5.42,29.58 5.2,30.64 5.28,31.7 L7.52,63.35 L14.33,63.35 L14.33,30.38 L15.9,23.09 L8.64,23.26 Z" id="Path" fill="#3D3D3C"></path>
                            <path d="M15.89,111.33 C15.9,112.3 16.69,113.09 17.66,113.09 L17.7,113.09 C18.66,113.09 19.44,112.33 19.47,111.37 L21.08,61.52 L15.44,61.5 L15.89,111.33 Z" id="Path" fill="#E72625"></path>
                            <path d="M20.22,22.43 L13.6,17.45 L2.17,17.45 L3.22,20.74 C3.74,22.38 4.77,23.81 6.15,24.84 L15.18,31.56 L15.45,61.5 L21.09,61.52 L22.22,26.6 C22.27,24.96 21.52,23.41 20.22,22.43 Z" id="Path" fill="#575757"></path>
                            <g transform="translate(0.000000, 12.000000)" fill="#3D3D3C">
                                <path d="M2.17,5.45 L13.6,5.45 L13.6,1.35 L0.93,1.35 L0.93,2.62 C0.93,3.76 1.41,4.79 2.17,5.45 Z" id="Path"></path>
                                <circle id="Oval" cx="1.42" cy="1.35" r="1"></circle>
                                <path d="M2.9,1.35 C2.9,1.08 2.68,0.86 2.41,0.86 C2.14,0.86 1.92,1.08 1.92,1.35 C1.92,1.62 2.14,1.84 2.41,1.84 C2.68,1.84 2.9,1.62 2.9,1.35 Z" id="Path"></path>
                                <path d="M3.89,1.35 C3.89,1.08 3.67,0.86 3.4,0.86 C3.13,0.86 2.91,1.08 2.91,1.35 C2.91,1.62 3.13,1.84 3.4,1.84 C3.67,1.84 3.89,1.62 3.89,1.35 Z" id="Path"></path>
                                <path d="M4.87,1.35 C4.87,1.08 4.65,0.86 4.38,0.86 C4.11,0.86 3.89,1.08 3.89,1.35 C3.89,1.62 4.11,1.84 4.38,1.84 C4.65,1.84 4.87,1.62 4.87,1.35 Z" id="Path"></path>
                                <circle id="Oval" cx="5.36" cy="1.35" r="1"></circle>
                                <path d="M6.84,1.35 C6.84,1.08 6.62,0.86 6.35,0.86 C6.08,0.86 5.86,1.08 5.86,1.35 C5.86,1.62 6.08,1.84 6.35,1.84 C6.62,1.84 6.84,1.62 6.84,1.35 Z" id="Path"></path>
                                <path d="M7.83,1.35 C7.83,1.08 7.61,0.86 7.34,0.86 C7.07,0.86 6.85,1.08 6.85,1.35 C6.85,1.62 7.07,1.84 7.34,1.84 C7.61,1.84 7.83,1.62 7.83,1.35 Z" id="Path"></path>
                                <path d="M8.81,1.35 C8.81,1.08 8.59,0.86 8.32,0.86 C8.05,0.86 7.83,1.08 7.83,1.35 C7.83,1.62 8.05,1.84 8.32,1.84 C8.59,1.84 8.81,1.62 8.81,1.35 Z" id="Path"></path>
                                <circle id="Oval" cx="9.3" cy="1.35" r="1"></circle>
                                <path d="M10.78,1.35 C10.78,1.08 10.56,0.86 10.29,0.86 C10.02,0.86 9.8,1.08 9.8,1.35 C9.8,1.62 10.02,1.84 10.29,1.84 C10.56,1.84 10.78,1.62 10.78,1.35 Z" id="Path"></path>
                                <path d="M11.77,1.35 C11.77,1.08 11.55,0.86 11.28,0.86 C11.01,0.86 10.79,1.08 10.79,1.35 C10.79,1.62 11.01,1.84 11.28,1.84 C11.55,1.84 11.77,1.62 11.77,1.35 Z" id="Path"></path>
                                <path d="M12.75,1.35 C12.75,1.08 12.53,0.86 12.26,0.86 C11.99,0.86 11.77,1.08 11.77,1.35 C11.77,1.62 11.99,1.84 12.26,1.84 C12.53,1.84 12.75,1.62 12.75,1.35 Z" id="Path"></path>
                            </g>
                            <path d="M6.13,19.3 C6.13,19.79 5.74,20.18 5.25,20.18 C4.77,20.18 4.37,19.79 4.37,19.3 C4.37,18.81 4.76,18.42 5.25,18.42 C5.74,18.42 6.13,18.81 6.13,19.3 Z" id="Path" fill="#8E8E8E"></path>
                            <path d="M12.21,19.3 C12.21,19.79 11.82,20.18 11.33,20.18 C10.85,20.18 10.45,19.79 10.45,19.3 C10.45,18.81 10.84,18.42 11.33,18.42 C11.82,18.42 12.21,18.81 12.21,19.3 Z" id="Path" fill="#8E8E8E"></path>
                            <path d="M15.5,23.99 C15.5,25.04 14.65,25.89 13.6,25.89 C12.55,25.89 11.7,25.04 11.7,23.99 C11.7,22.94 12.55,22.09 13.6,22.09 C14.65,22.09 15.5,22.94 15.5,23.99 Z" id="Path" fill="#8E8E8E"></path>
                            <g transform="translate(8.000000, 63.000000)" id="Path">
                                <path d="M5.21,47.9 C5.21,49.11 4.23,50.09 3.02,50.09 C1.81,50.09 0.83,49.11 0.83,47.9 L0.83,2.56 C0.83,1.35 1.81,0.37 3.02,0.37 C4.23,0.37 5.21,1.35 5.21,2.56 L5.21,47.9 Z" fill="#3D3D3C"></path>
                                <path d="M5.42,4.19 C5.42,4.4 5.25,4.58 5.04,4.6 L0.99,5.05 C0.78,5.07 0.61,4.92 0.61,4.72 C0.61,4.51 0.78,4.32 0.99,4.3 L5.04,3.85 C5.25,3.83 5.42,3.98 5.42,4.19 Z" fill="#575757"></path>
                                <path d="M5.42,5.4 C5.42,5.61 5.25,5.8 5.04,5.82 L0.99,6.27 C0.78,6.29 0.61,6.14 0.61,5.93 C0.61,5.72 0.78,5.53 0.99,5.51 L5.04,5.06 C5.25,5.04 5.42,5.19 5.42,5.4 Z" fill="#575757"></path>
                                <path d="M5.42,6.61 C5.42,6.82 5.25,7 5.04,7.03 L0.99,7.48 C0.78,7.5 0.61,7.35 0.61,7.14 C0.61,6.93 0.78,6.74 0.99,6.72 L5.04,6.27 C5.25,6.25 5.42,6.4 5.42,6.61 Z" fill="#575757"></path>
                                <path d="M5.42,7.81 C5.42,8.02 5.25,8.21 5.04,8.23 L0.99,8.68 C0.78,8.7 0.61,8.56 0.61,8.34 C0.61,8.13 0.78,7.95 0.99,7.92 L5.04,7.47 C5.25,7.46 5.42,7.61 5.42,7.81 Z" fill="#575757"></path>
                                <path d="M5.42,9.02 C5.42,9.23 5.25,9.42 5.04,9.44 L0.99,9.89 C0.78,9.91 0.61,9.77 0.61,9.56 C0.61,9.35 0.78,9.16 0.99,9.14 L5.04,8.69 C5.25,8.67 5.42,8.82 5.42,9.02 Z" fill="#575757"></path>
                                <path d="M5.42,10.23 C5.42,10.44 5.25,10.63 5.04,10.65 L0.99,11.1 C0.78,11.12 0.61,10.97 0.61,10.76 C0.61,10.55 0.78,10.37 0.99,10.35 L5.04,9.9 C5.25,9.88 5.42,10.03 5.42,10.23 Z" fill="#575757"></path>
                                <path d="M5.42,11.44 C5.42,11.65 5.25,11.84 5.04,11.86 L0.99,12.31 C0.78,12.33 0.61,12.19 0.61,11.98 C0.61,11.77 0.78,11.58 0.99,11.56 L5.04,11.11 C5.25,11.08 5.42,11.23 5.42,11.44 Z" fill="#575757"></path>
                                <path d="M5.42,12.65 C5.42,12.86 5.25,13.04 5.04,13.07 L0.99,13.52 C0.78,13.54 0.61,13.39 0.61,13.19 C0.61,12.98 0.78,12.79 0.99,12.77 L5.04,12.32 C5.25,12.29 5.42,12.45 5.42,12.65 Z" fill="#575757"></path>
                                <path d="M5.42,13.86 C5.42,14.07 5.25,14.26 5.04,14.28 L0.99,14.73 C0.78,14.75 0.61,14.61 0.61,14.4 C0.61,14.19 0.78,14 0.99,13.98 L5.04,13.53 C5.25,13.5 5.42,13.66 5.42,13.86 Z" fill="#575757"></path>
                                <path d="M5.42,15.07 C5.42,15.28 5.25,15.46 5.04,15.49 L0.99,15.94 C0.78,15.96 0.61,15.81 0.61,15.61 C0.61,15.4 0.78,15.21 0.99,15.19 L5.04,14.74 C5.25,14.71 5.42,14.86 5.42,15.07 Z" fill="#575757"></path>
                                <path d="M5.42,16.28 C5.42,16.49 5.25,16.68 5.04,16.7 L0.99,17.15 C0.78,17.17 0.61,17.02 0.61,16.81 C0.61,16.6 0.78,16.41 0.99,16.39 L5.04,15.94 C5.25,15.92 5.42,16.07 5.42,16.28 Z" fill="#575757"></path>
                                <path d="M5.42,17.49 C5.42,17.7 5.25,17.89 5.04,17.91 L0.99,18.36 C0.78,18.38 0.61,18.23 0.61,18.02 C0.61,17.81 0.78,17.62 0.99,17.6 L5.04,17.15 C5.25,17.13 5.42,17.28 5.42,17.49 Z" fill="#575757"></path>
                                <path d="M5.42,18.7 C5.42,18.91 5.25,19.1 5.04,19.12 L0.99,19.57 C0.78,19.59 0.61,19.44 0.61,19.23 C0.61,19.02 0.78,18.84 0.99,18.81 L5.04,18.36 C5.25,18.34 5.42,18.49 5.42,18.7 Z" fill="#575757"></path>
                                <path d="M5.42,19.91 C5.42,20.12 5.25,20.31 5.04,20.33 L0.99,20.78 C0.78,20.8 0.61,20.66 0.61,20.45 C0.61,20.24 0.78,20.05 0.99,20.03 L5.04,19.58 C5.25,19.55 5.42,19.7 5.42,19.91 Z" fill="#575757"></path>
                                <path d="M5.42,21.12 C5.42,21.33 5.25,21.52 5.04,21.54 L0.99,21.99 C0.78,22.01 0.61,21.87 0.61,21.65 C0.61,21.44 0.78,21.26 0.99,21.24 L5.04,20.79 C5.25,20.76 5.42,20.91 5.42,21.12 Z" fill="#575757"></path>
                                <path d="M5.42,22.33 C5.42,22.54 5.25,22.73 5.04,22.75 L0.99,23.2 C0.78,23.22 0.61,23.08 0.61,22.87 C0.61,22.66 0.78,22.47 0.99,22.45 L5.04,22 C5.25,21.97 5.42,22.12 5.42,22.33 Z" fill="#575757"></path>
                                <path d="M5.42,23.54 C5.42,23.75 5.25,23.93 5.04,23.96 L0.99,24.41 C0.78,24.43 0.61,24.28 0.61,24.08 C0.61,23.87 0.78,23.68 0.99,23.66 L5.04,23.21 C5.25,23.18 5.42,23.33 5.42,23.54 Z" fill="#575757"></path>
                                <path d="M5.42,24.75 C5.42,24.96 5.25,25.15 5.04,25.17 L0.99,25.62 C0.78,25.64 0.61,25.49 0.61,25.28 C0.61,25.07 0.78,24.88 0.99,24.86 L5.04,24.41 C5.25,24.39 5.42,24.54 5.42,24.75 Z" fill="#575757"></path>
                                <path d="M5.42,25.96 C5.42,26.17 5.25,26.35 5.04,26.38 L0.99,26.83 C0.78,26.85 0.61,26.7 0.61,26.5 C0.61,26.29 0.78,26.1 0.99,26.08 L5.04,25.63 C5.25,25.6 5.42,25.75 5.42,25.96 Z" fill="#575757"></path>
                            </g>
                            <g transform="translate(6.000000, 63.000000)" id="Path">
                                <path d="M8.46,4.07 L1.35,4.07 C1.12,4.07 0.94,3.89 0.94,3.66 L0.94,0.77 C0.94,0.54 1.12,0.36 1.35,0.36 L8.46,0.36 C8.69,0.36 8.87,0.55 8.87,0.77 L8.87,3.66 C8.87,3.88 8.68,4.07 8.46,4.07 Z" fill="#CFCFCF"></path>
                                <g fill="#8E8E8E">
                                    <path d="M1.7,3.49 C1.7,3.63 1.6,3.73 1.47,3.73 C1.34,3.73 1.24,3.62 1.24,3.49 L1.24,0.93 C1.24,0.8 1.34,0.69 1.47,0.69 C1.6,0.69 1.7,0.8 1.7,0.93 L1.7,3.49 Z"></path>
                                    <path d="M2.39,3.49 C2.39,3.63 2.29,3.73 2.16,3.73 C2.03,3.73 1.93,3.62 1.93,3.49 L1.93,0.93 C1.93,0.8 2.03,0.69 2.16,0.69 C2.29,0.69 2.39,0.8 2.39,0.93 L2.39,3.49 Z"></path>
                                    <path d="M3.07,3.49 C3.07,3.63 2.97,3.73 2.84,3.73 C2.71,3.73 2.61,3.62 2.61,3.49 L2.61,0.93 C2.61,0.8 2.71,0.69 2.84,0.69 C2.97,0.69 3.07,0.8 3.07,0.93 L3.07,3.49 Z"></path>
                                    <path d="M3.76,3.49 C3.76,3.63 3.66,3.73 3.53,3.73 C3.4,3.73 3.3,3.62 3.3,3.49 L3.3,0.93 C3.3,0.8 3.4,0.69 3.53,0.69 C3.66,0.69 3.76,0.8 3.76,0.93 L3.76,3.49 Z"></path>
                                    <path d="M4.45,3.49 C4.45,3.63 4.35,3.73 4.22,3.73 C4.09,3.73 3.99,3.62 3.99,3.49 L3.99,0.93 C3.99,0.8 4.09,0.69 4.22,0.69 C4.35,0.69 4.45,0.8 4.45,0.93 L4.45,3.49 Z"></path>
                                    <path d="M5.13,3.49 C5.13,3.63 5.03,3.73 4.9,3.73 C4.77,3.73 4.67,3.62 4.67,3.49 L4.67,0.93 C4.67,0.8 4.77,0.69 4.9,0.69 C5.03,0.69 5.13,0.8 5.13,0.93 L5.13,3.49 Z"></path>
                                    <path d="M5.82,3.49 C5.82,3.63 5.72,3.73 5.59,3.73 C5.46,3.73 5.36,3.62 5.36,3.49 L5.36,0.93 C5.36,0.8 5.46,0.69 5.59,0.69 C5.72,0.69 5.82,0.8 5.82,0.93 L5.82,3.49 Z"></path>
                                    <path d="M6.51,3.49 C6.51,3.63 6.41,3.73 6.28,3.73 C6.15,3.73 6.05,3.62 6.05,3.49 L6.05,0.93 C6.05,0.8 6.15,0.69 6.28,0.69 C6.41,0.69 6.51,0.8 6.51,0.93 L6.51,3.49 Z"></path>
                                    <path d="M7.19,3.49 C7.19,3.63 7.09,3.73 6.96,3.73 C6.83,3.73 6.73,3.62 6.73,3.49 L6.73,0.93 C6.73,0.8 6.84,0.69 6.96,0.69 C7.09,0.69 7.19,0.8 7.19,0.93 L7.19,3.49 Z"></path>
                                    <path d="M7.88,3.49 C7.88,3.63 7.78,3.73 7.65,3.73 C7.52,3.73 7.42,3.62 7.42,3.49 L7.42,0.93 C7.42,0.8 7.52,0.69 7.65,0.69 C7.78,0.69 7.88,0.8 7.88,0.93 L7.88,3.49 Z"></path>
                                    <path d="M8.57,3.49 C8.57,3.63 8.47,3.73 8.34,3.73 C8.21,3.73 8.11,3.62 8.11,3.49 L8.11,0.93 C8.11,0.8 8.21,0.69 8.34,0.69 C8.47,0.69 8.57,0.8 8.57,0.93 L8.57,3.49 Z"></path>
                                </g>
                            </g>
                        </g>
                        <path d="M22.33,51.42 L22.33,51.34 C22.33,49.19 20.58,47.44 18.43,47.44 L4.87,47.44 C2.72,47.44 0.97,49.18 0.97,51.34 L0.97,51.42 C0.97,53.57 2.71,55.32 4.87,55.32 L18.43,55.32 C20.59,55.32 22.33,53.58 22.33,51.42 Z" id="Path" fill="#924009"></path>
                        <path d="M22.33,59.3 L22.33,59.22 C22.33,57.07 20.58,55.32 18.43,55.32 L3.91,55.32 C1.76,55.32 0.01,57.06 0.01,59.22 L0.01,59.3 C0.01,61.45 1.76,63.2 3.91,63.2 L18.43,63.2 C20.59,63.2 22.33,61.45 22.33,59.3 Z" id="Path" fill="#924009"></path>
                        <path d="M22.33,67.17 L22.33,67.09 C22.33,64.94 20.58,63.2 18.43,63.2 L6.26,63.2 C4.11,63.2 2.36,64.94 2.36,67.09 L2.36,67.17 C2.36,69.32 4.1,71.07 6.26,71.07 L18.43,71.07 C20.59,71.07 22.33,69.32 22.33,67.17 Z" id="Path" fill="#924009"></path>
                        <path d="M22.33,74.53 L22.33,74.46 C22.33,72.55 20.78,71 18.87,71 L8.06,71 C6.15,71 4.6,72.55 4.6,74.46 L4.6,74.53 C4.6,76.44 6.15,77.99 8.06,77.99 L18.87,77.99 C20.78,77.99 22.33,76.44 22.33,74.53 Z" id="Path" fill="#924009"></path>
                        <path d="M12.35,51.42 L12.35,51.34 C12.35,49.19 14.1,47.44 16.25,47.44 L24.24,47.44 L25.66,47.44 L33.62,47.44 C37.07,47.44 40.15,48.97 42.25,51.38 L52.02,50.66 C55.28,58.11 55.12,66.07 52.02,74.49 L42.97,73.2 C40.89,76.13 37.48,78.05 33.61,78.05 L25.65,78.05 L24.23,78.05 L18.68,78.05 C16.77,78.05 15.22,76.5 15.22,74.59 L15.22,74.52 C15.22,72.61 16.77,71.06 18.68,71.06 L17.41,71.06 C15.26,71.06 13.51,69.31 13.51,67.16 L13.51,67.08 C13.51,64.93 15.25,63.19 17.41,63.19 L16.24,63.19 C14.09,63.19 12.34,61.44 12.34,59.29 L12.34,59.21 C12.34,57.06 14.09,55.31 16.24,55.31 C14.1,55.32 12.35,53.58 12.35,51.42 Z" id="Path" fill="#A74B13"></path>
                    </g>
                </g>
                <circle id="Oval" cx="120.78" cy="178.77" r="120.42"></circle>
                <path d="M168.96,132.39 L172.94,128.41 L169,124.47 L172.22,121.25 L176.15,125.21 L180.11,121.25 L183.32,124.47 L179.38,128.41 L183.32,132.35 L180.11,135.56 L176.15,131.69 L172.18,135.66 L168.96,132.39 Z M180.11,134.5 L182.25,132.35 L178.35,128.41 L182.29,124.47 L180.15,122.32 L176.15,126.26 L172.22,122.32 L170.08,124.47 L174.01,128.41 L170.08,132.39 L172.23,134.53 L176.15,130.52 L180.11,134.5 Z" id="Shape" fill="url(#linearGradient-9)" fill-rule="nonzero"></path>
                <path d="M185.81,35.3 C185.81,37.73 183.84,39.69 181.42,39.69 C179,39.69 177.03,37.72 177.03,35.3 C177.03,32.87 179,30.91 181.42,30.91 C183.84,30.91 185.8,32.88 185.81,35.3 Z M181.42,38.05 C182.94,38.05 184.17,36.82 184.17,35.3 C184.17,33.78 182.94,32.55 181.42,32.55 C179.9,32.55 178.67,33.78 178.67,35.3 C178.67,36.82 179.9,38.04 181.42,38.05 Z" id="Shape" fill="url(#linearGradient-10)" fill-rule="nonzero"></path>
                <path d="M240.35,101.24 C240.35,103.67 238.38,105.63 235.96,105.63 C233.53,105.63 231.57,103.66 231.57,101.24 C231.57,98.82 233.54,96.85 235.96,96.85 C238.38,96.85 240.34,98.82 240.35,101.24 Z M235.96,103.99 C237.48,103.99 238.71,102.76 238.71,101.24 C238.71,99.72 237.48,98.49 235.96,98.49 C234.44,98.49 233.21,99.72 233.21,101.24 C233.21,101.24 233.21,101.24 233.21,101.24 C233.21,102.76 234.44,103.99 235.96,103.99 Z" id="Shape" fill="url(#linearGradient-11)" fill-rule="nonzero"></path>
            </g>
        </g>
    </g>
</svg>