<?xml version="1.0" encoding="UTF-8"?>
<svg width="242px" height="279px" viewBox="0 0 242 279" version="1.1" xmlns="http://www.w3.org/2000/svg" xmlns:xlink="http://www.w3.org/1999/xlink">
    <!-- Generator: Sketch 52.6 (67491) - http://www.bohemiancoding.com/sketch -->
    <title>Welcome_img</title>
    <desc>Created with Sketch.</desc>
    <defs>
        <linearGradient x1="0%" y1="49.9281265%" x2="100%" y2="49.9281265%" id="linearGradient-1">
            <stop stop-color="#FFCC5D" offset="0%"></stop>
            <stop stop-color="#FFCF51" offset="9%"></stop>
            <stop stop-color="#FFD346" offset="23%"></stop>
            <stop stop-color="#FFD43F" offset="43%"></stop>
            <stop stop-color="#FFD53D" offset="100%"></stop>
        </linearGradient>
        <linearGradient x1="0%" y1="50%" x2="100%" y2="50%" id="linearGradient-2">
            <stop stop-color="#FFCC5D" offset="0%"></stop>
            <stop stop-color="#FFCF51" offset="9%"></stop>
            <stop stop-color="#FFD346" offset="23%"></stop>
            <stop stop-color="#FFD43F" offset="43%"></stop>
            <stop stop-color="#FFD53D" offset="100%"></stop>
        </linearGradient>
        <linearGradient x1="0%" y1="50.0359324%" x2="100%" y2="50.0359324%" id="linearGradient-3">
            <stop stop-color="#FFCC5D" offset="0%"></stop>
            <stop stop-color="#FFCF51" offset="9%"></stop>
            <stop stop-color="#FFD346" offset="23%"></stop>
            <stop stop-color="#FFD43F" offset="43%"></stop>
            <stop stop-color="#FFD53D" offset="100%"></stop>
        </linearGradient>
        <linearGradient x1="0%" y1="49.9601467%" x2="100%" y2="49.9601467%" id="linearGradient-4">
            <stop stop-color="#FFCC5D" offset="0%"></stop>
            <stop stop-color="#FFCF51" offset="9%"></stop>
            <stop stop-color="#FFD346" offset="23%"></stop>
            <stop stop-color="#FFD43F" offset="43%"></stop>
            <stop stop-color="#FFD53D" offset="100%"></stop>
        </linearGradient>
        <linearGradient x1="0.328947368%" y1="50%" x2="100.328947%" y2="50%" id="linearGradient-5">
            <stop stop-color="#FFCC5D" offset="0%"></stop>
            <stop stop-color="#FFCF51" offset="9%"></stop>
            <stop stop-color="#FFD346" offset="23%"></stop>
            <stop stop-color="#FFD43F" offset="43%"></stop>
            <stop stop-color="#FFD53D" offset="100%"></stop>
        </linearGradient>
        <linearGradient x1="0%" y1="49.7952498%" x2="100%" y2="49.7952498%" id="linearGradient-6">
            <stop stop-color="#FFCC5D" offset="0%"></stop>
            <stop stop-color="#FFCF51" offset="9%"></stop>
            <stop stop-color="#FFD346" offset="23%"></stop>
            <stop stop-color="#FFD43F" offset="43%"></stop>
            <stop stop-color="#FFD53D" offset="100%"></stop>
        </linearGradient>
        <linearGradient x1="-4.77515279e-14%" y1="50%" x2="100%" y2="50%" id="linearGradient-7">
            <stop stop-color="#FFCC5D" offset="0%"></stop>
            <stop stop-color="#FFCF51" offset="9%"></stop>
            <stop stop-color="#FFD346" offset="23%"></stop>
            <stop stop-color="#FFD43F" offset="43%"></stop>
            <stop stop-color="#FFD53D" offset="100%"></stop>
        </linearGradient>
        <linearGradient x1="6.26369519e-05%" y1="49.9992736%" x2="99.998592%" y2="49.9992736%" id="linearGradient-8">
            <stop stop-color="#FFCC5D" offset="0%"></stop>
            <stop stop-color="#FFCF51" offset="9%"></stop>
            <stop stop-color="#FFD346" offset="23%"></stop>
            <stop stop-color="#FFD43F" offset="43%"></stop>
            <stop stop-color="#FFD53D" offset="100%"></stop>
        </linearGradient>
        <linearGradient x1="-0.209528964%" y1="49.7312263%" x2="99.8092156%" y2="49.7312263%" id="linearGradient-9">
            <stop stop-color="#FFCC5D" offset="0%"></stop>
            <stop stop-color="#FFCF51" offset="9%"></stop>
            <stop stop-color="#FFD346" offset="23%"></stop>
            <stop stop-color="#FFD43F" offset="43%"></stop>
            <stop stop-color="#FFD53D" offset="100%"></stop>
        </linearGradient>
        <linearGradient x1="-16.5477031%" y1="72.3595261%" x2="116.532503%" y2="27.6269213%" id="linearGradient-10">
            <stop stop-color="#FFCC5D" offset="0%"></stop>
            <stop stop-color="#FFCF51" offset="9%"></stop>
            <stop stop-color="#FFD346" offset="23%"></stop>
            <stop stop-color="#FFD43F" offset="43%"></stop>
            <stop stop-color="#FFD53D" offset="100%"></stop>
        </linearGradient>
        <linearGradient x1="5.33729345%" y1="142.620724%" x2="94.801622%" y2="-41.9770662%" id="linearGradient-11">
            <stop stop-color="#FFCC5D" offset="0%"></stop>
            <stop stop-color="#FFCF51" offset="9%"></stop>
            <stop stop-color="#FFD346" offset="23%"></stop>
            <stop stop-color="#FFD43F" offset="43%"></stop>
            <stop stop-color="#FFD53D" offset="100%"></stop>
        </linearGradient>
        <linearGradient x1="0.0678742691%" y1="49.9727835%" x2="100.009027%" y2="49.9727835%" id="linearGradient-12">
            <stop stop-color="#FFCC5D" offset="0%"></stop>
            <stop stop-color="#FFCF51" offset="9%"></stop>
            <stop stop-color="#FFD346" offset="23%"></stop>
            <stop stop-color="#FFD43F" offset="43%"></stop>
            <stop stop-color="#FFD53D" offset="100%"></stop>
        </linearGradient>
        <linearGradient x1="0.00127181449%" y1="50.1932%" x2="100%" y2="50.1932%" id="linearGradient-13">
            <stop stop-color="#FFCC5D" offset="0%"></stop>
            <stop stop-color="#FFCF51" offset="9%"></stop>
            <stop stop-color="#FFD346" offset="23%"></stop>
            <stop stop-color="#FFD43F" offset="43%"></stop>
            <stop stop-color="#FFD53D" offset="100%"></stop>
        </linearGradient>
    </defs>
    <g id="Page-1" stroke="none" stroke-width="1" fill="none" fill-rule="evenodd">
        <g id="Welcome" transform="translate(-66.000000, -88.000000)" fill-rule="nonzero">
            <g id="Welcome_img" transform="translate(66.000000, 88.000000)">
                <circle id="Oval" fill="#FFF6CE" cx="120.78" cy="157.54" r="120.78"></circle>
                <ellipse id="Oval" fill="#FFF0BF" cx="121.57" cy="225.97" rx="96.91" ry="4.16"></ellipse>
                <polygon id="Path" fill="#0B1624" points="186.2 132.51 192.2 143.76 192.12 143.79 149.25 143.79 139.1 132.66 139.22 132.55 186.12 132.55"></polygon>
                <polygon id="Path" fill="#232241" points="149.25 143.79 161.28 156.98 161.89 157.65 159.09 160.2 154.17 154.8 123.48 121.14 92.79 154.8 87.86 160.2 85.06 157.65 85.83 156.81 97.67 143.82 107.71 132.82 111.71 128.43 123.48 115.53 135.25 128.43 139.1 132.66"></polygon>
                <polygon id="Path" fill="#0B1624" points="107.71 132.82 97.67 143.82 97.63 143.79 54.52 143.79 60.52 132.55 107.41 132.55"></polygon>
                <polygon id="Path" fill="#646374" points="199.37 217.49 199.37 224.7 154.17 224.7 154.17 217.49 194.95 217.49"></polygon>
                <polygon id="Path" fill="#353660" points="192.2 143.76 199.15 156.81 194.95 156.81 161.47 156.81 161.28 156.98 149.25 143.79 192.12 143.79"></polygon>
                <path d="M194.95,156.81 L194.95,217.49 L154.17,217.49 L154.17,180 L154.26,180 L154.26,176.88 L154.17,176.88 L154.17,154.88 L159.09,160.28 L161.89,157.73 L161.29,157.06 L161.48,156.89 L194.95,156.81 Z M186.95,204.09 L186.95,200.47 L183.62,200.47 L183.62,172.62 L166.98,172.62 L166.98,200.47 L163.65,200.47 L163.65,204.09 L186.95,204.09 Z" id="Shape" fill="url(#linearGradient-1)"></path>
                <polygon id="Path" fill="#353660" points="186.98 200.47 186.98 204.09 163.65 204.09 163.65 200.47 166.98 200.47 168.65 200.47 174.38 200.47 176.7 200.47 182.13 200.47 183.65 200.47"></polygon>
                <polygon id="Path" fill="#353660" points="184.03 128.43 186.2 132.51 186.12 132.55 139.22 132.55 139.1 132.66 135.25 128.43"></polygon>
                <polygon id="Path" fill="#353660" points="183.65 172.63 183.65 200.47 182.13 200.47 182.13 187.64 182.13 185.25 182.13 174.8 176.7 174.8 174.38 174.8 168.65 174.8 168.65 185.25 168.65 187.64 168.65 200.47 166.98 200.47 166.98 172.63"></polygon>
                <rect id="Rectangle" fill="#C7E9F0" x="176.7" y="187.64" width="5.43" height="12.83"></rect>
                <rect id="Rectangle" fill="#353660" x="176.7" y="185.26" width="5.43" height="2.38"></rect>
                <rect id="Rectangle" fill="#C7E9F0" x="176.7" y="174.8" width="5.43" height="10.45"></rect>
                <rect id="Rectangle" fill="#353660" x="174.38" y="187.64" width="2.31" height="12.83"></rect>
                <rect id="Rectangle" fill="#353660" x="174.38" y="185.26" width="2.31" height="2.38"></rect>
                <rect id="Rectangle" fill="#353660" x="174.38" y="174.8" width="2.31" height="10.45"></rect>
                <rect id="Rectangle" fill="#C7E9F0" x="168.65" y="187.64" width="5.73" height="12.83"></rect>
                <rect id="Rectangle" fill="#353660" x="168.65" y="185.26" width="5.73" height="2.38"></rect>
                <rect id="Rectangle" fill="#C7E9F0" x="168.65" y="174.8" width="5.73" height="10.45"></rect>
                <polygon id="Path" fill="url(#linearGradient-2)" points="154.17 217.49 154.17 224.7 145.15 224.7 145.15 218.93 135.51 218.93 135.51 186.3 113.75 186.3 111.44 186.3 111.44 218.93 101.81 218.93 101.81 224.7 92.79 224.7 92.79 217.49 92.79 179.96 154.17 179.96"></polygon>
                <rect id="Rectangle" fill="#FFE3B9" x="92.79" y="176.84" width="61.38" height="3.12"></rect>
                <path d="M154.17,154.8 L154.17,176.8 L92.79,176.8 L92.79,154.8 L123.5,121.14 L154.17,154.8 Z M139.5,173.5 L139.5,169.83 L134.91,169.83 L134.91,141.59 L112.01,141.59 L112.01,169.83 L107.41,169.83 L107.41,173.5 L139.5,173.5 Z" id="Shape" fill="url(#linearGradient-3)"></path>
                <polygon id="Path" fill="#646374" points="145.15 218.93 145.15 224.7 101.81 224.7 101.81 218.93 111.44 218.93 113.75 218.93 135.51 218.93"></polygon>
                <polygon id="Path" fill="#353660" points="139.54 169.83 139.54 173.5 107.41 173.5 107.41 169.83 112 169.83 114.09 169.83 121.57 169.83 124.76 169.83 132.65 169.83 134.95 169.83"></polygon>
                <rect id="Rectangle" fill="#353660" x="113.75" y="186.3" width="21.76" height="32.63"></rect>
                <polygon id="Path" fill="#353660" points="134.95 141.59 134.95 169.83 132.65 169.83 132.65 156.81 132.65 154.4 132.65 143.79 124.76 143.79 121.57 143.79 114.09 143.79 114.09 154.4 114.09 156.81 114.09 169.83 112 169.83 112 141.59"></polygon>
                <rect id="Rectangle" fill="#C7E9F0" x="124.76" y="156.81" width="7.89" height="13.02"></rect>
                <rect id="Rectangle" fill="#353660" x="124.76" y="154.4" width="7.89" height="2.41"></rect>
                <rect id="Rectangle" fill="#C7E9F0" x="124.76" y="143.79" width="7.89" height="10.6"></rect>
                <rect id="Rectangle" fill="#353660" x="121.57" y="156.81" width="3.19" height="13.02"></rect>
                <rect id="Rectangle" fill="#353660" x="121.57" y="154.4" width="3.19" height="2.41"></rect>
                <rect id="Rectangle" fill="#353660" x="121.57" y="143.79" width="3.19" height="10.6"></rect>
                <rect id="Rectangle" fill="#C7E9F0" x="114.09" y="156.81" width="7.48" height="13.02"></rect>
                <rect id="Rectangle" fill="#353660" x="114.09" y="154.4" width="7.48" height="2.41"></rect>
                <rect id="Rectangle" fill="#C7E9F0" x="114.09" y="143.79" width="7.48" height="10.6"></rect>
                <rect id="Rectangle" fill="#270F0F" x="111.44" y="186.3" width="2.31" height="32.63"></rect>
                <polygon id="Path" fill="#353660" points="111.71 128.43 107.71 132.82 107.41 132.55 60.52 132.55 62.72 128.43 71.56 128.43 80.13 128.43"></polygon>
                <polygon id="Path" fill="#353660" points="97.67 143.82 85.83 156.81 52.01 156.81 47.59 156.81 54.52 143.79 97.63 143.79"></polygon>
                <polygon id="Path" fill="#646374" points="92.79 217.49 92.79 224.7 47.59 224.7 47.59 217.49 52.01 217.49"></polygon>
                <path d="M92.79,180 L92.79,217.53 L52.01,217.53 L52.01,156.81 L85.83,156.81 L85.07,157.65 L87.86,160.2 L92.79,154.8 L92.79,180 Z M83.3,204.09 L83.3,200.47 L79.98,200.47 L79.98,172.62 L63.31,172.62 L63.31,200.47 L59.98,200.47 L59.98,204.09 L83.3,204.09 Z" id="Shape" fill="url(#linearGradient-4)"></path>
                <polygon id="Path" fill="#353660" points="83.3 200.47 83.3 204.09 59.98 204.09 59.98 200.47 63.3 200.47 64.83 200.47 70.26 200.47 72.57 200.47 78.3 200.47 79.97 200.47"></polygon>
                <polygon id="Path" fill="#353660" points="79.97 172.63 79.97 200.47 78.3 200.47 78.3 187.64 78.3 185.25 78.3 174.8 72.57 174.8 70.26 174.8 64.83 174.8 64.83 185.25 64.83 187.64 64.83 200.47 63.3 200.47 63.3 172.63"></polygon>
                <rect id="Rectangle" fill="#C7E9F0" x="72.57" y="187.64" width="5.73" height="12.83"></rect>
                <rect id="Rectangle" fill="#353660" x="72.57" y="185.26" width="5.73" height="2.38"></rect>
                <rect id="Rectangle" fill="#C7E9F0" x="72.57" y="174.8" width="5.73" height="10.45"></rect>
                <rect id="Rectangle" fill="#353660" x="70.26" y="187.64" width="2.31" height="12.83"></rect>
                <rect id="Rectangle" fill="#353660" x="70.26" y="185.26" width="2.31" height="2.38"></rect>
                <rect id="Rectangle" fill="#353660" x="70.26" y="174.8" width="2.31" height="10.45"></rect>
                <rect id="Rectangle" fill="#C7E9F0" x="64.83" y="187.64" width="5.43" height="12.83"></rect>
                <rect id="Rectangle" fill="#353660" x="64.83" y="185.26" width="5.43" height="2.38"></rect>
                <rect id="Rectangle" fill="#C7E9F0" x="64.83" y="174.8" width="5.43" height="10.45"></rect>
                <path d="M174.5,20.9 L177.87,17.54 L174.53,14.2 L177.25,11.47 L180.59,14.81 L183.93,11.47 L186.66,14.2 L183.32,17.54 L186.66,20.88 L183.93,23.6 L180.59,20.26 L177.23,23.63 L174.5,20.9 Z M183.93,22.69 L185.75,20.88 L182.5,17.54 L185.84,14.2 L184.02,12.38 L180.68,15.72 L177.34,12.38 L175.5,14.2 L178.83,17.54 L175.5,20.9 L177.32,22.72 L180.68,19.36 L183.93,22.69 Z" id="Shape" fill="url(#linearGradient-5)"></path>
                <path d="M66.55,67.59 L69.92,64.22 L66.58,60.88 L69.31,58.15 L72.64,61.5 L75.99,58.15 L78.71,60.88 L75.37,64.22 L78.71,67.56 L75.99,70.28 L72.64,67 L69.28,70.36 L66.55,67.59 Z M75.99,69.38 L77.8,67.56 L74.5,64.22 L77.84,60.88 L76.03,59.06 L72.64,62.4 L69.31,59.06 L67.5,60.88 L70.83,64.22 L67.5,67.59 L69.32,69.4 L72.64,66 L75.99,69.38 Z" id="Shape" fill="url(#linearGradient-6)"></path>
                <path d="M26.05,84.93 C26.05,86.9844993 24.3844993,88.65 22.33,88.65 C20.2755007,88.65 18.61,86.9844993 18.61,84.93 C18.61,82.8755007 20.2755007,81.21 22.33,81.21 C24.382219,81.2154946 26.0445054,82.877781 26.05,84.93 Z M22.33,87.26 C23.6168235,87.26 24.66,86.2168235 24.66,84.93 C24.66,83.6431765 23.6168235,82.6 22.33,82.6 C21.0431765,82.6 20,83.6431765 20,84.93 C20.0054779,86.2145476 21.0454524,87.2545221 22.33,87.26 Z" id="Shape" fill="url(#linearGradient-7)"></path>
                <path d="M76.35,3.72 C76.35,5.77449927 74.6844993,7.44 72.63,7.44 C70.5755007,7.44 68.91,5.77449927 68.91,3.72 C68.91,1.66550073 70.5755007,3.77405393e-16 72.63,0 C74.682219,0.00549459183 76.3445054,1.66778097 76.35,3.72 Z M72.63,6.05 C73.9168235,6.05 74.96,5.00682347 74.96,3.72 C74.96,2.43317653 73.9168235,1.39 72.63,1.39 C71.3431765,1.39 70.3,2.43317653 70.3,3.72 C70.3,5.00682347 71.3431765,6.05 72.63,6.05 Z" id="Shape" fill="url(#linearGradient-2)"></path>
                <path d="M202.98,88.12 C205.5452,88.1200032 207.857624,89.6657788 208.838347,92.0361024 C209.81907,94.406426 209.274811,97.1341558 207.459509,98.9465939 C205.644208,100.759032 202.915622,101.298984 200.54685,100.314521 C198.178077,99.3300581 196.635954,97.0151968 196.64,94.45 C196.651005,90.9547039 199.484691,88.1254871 202.98,88.12 Z M206.98,94.45 C206.98,92.240861 205.189139,90.45 202.98,90.45 C200.770861,90.45 198.98,92.240861 198.98,94.45 C198.98,96.659139 200.770861,98.45 202.98,98.45 C205.177414,98.4335189 206.950062,96.6474761 206.95,94.45 L206.98,94.45 Z" id="Shape" fill="url(#linearGradient-8)"></path>
                <path d="M84.93,41.63 L63.85,16.5 C65.0289079,14.1539578 64.700267,11.3316098 63.0138521,9.31921253 C61.3274371,7.30681529 58.6060754,6.48959833 56.09,7.24 L59.97,11.87 L59.38,15.23 L55.98,15.23 L52.1,10.59 C50.9210921,12.9360422 51.249733,15.7583902 52.9361479,17.7707875 C54.6225629,19.7831847 57.3439246,20.6004017 59.86,19.85 L80.94,45 C79.5380162,47.787987 80.2871966,51.1773016 82.7336702,53.1146185 C85.1801439,55.0519353 88.6509449,55.0043453 91.0433817,53.0006796 C93.4358184,50.9970138 94.0917891,47.5884324 92.6138917,44.839933 C91.1359942,42.0914336 87.9307624,40.7590621 84.94,41.65 L84.93,41.63 Z M90.63,49.24 L87.5,51.9 L83.6,50.49 L82.88,46.4 L86.06,43.73 L89.96,45.15 L90.63,49.24 Z" id="Shape" fill="#C4BEBD"></path>
                <path d="M81.73,41.86 C81.1213555,42.3407741 80.2430197,42.2617239 79.73,41.68 L63.23,22.08 C62.7543593,21.4698359 62.8330557,20.5954314 63.41,20.08 C64.0170714,19.5939743 64.8994658,19.6733898 65.41,20.26 L81.86,39.86 C82.3482906,40.4574625 82.2915253,41.3307755 81.73,41.86 Z" id="Path" fill="#D5D3D2"></path>
                <polygon id="Path" fill="#C4BEBD" points="34.56 134.45 33.24 132.41 35.67 132.28 36.96 132.21 37.2 131.75 36.49 130.67 35.16 128.62 37.6 128.49 38.89 128.43 39.13 127.97 38.42 126.88 37.09 124.84 39.53 124.71 40.82 124.64 41.05 124.18 40.35 123.1 39.02 121.05 41.45 120.92 42.75 120.86 42.98 120.4 42.28 119.31 40.95 117.27 43.38 117.14 44.68 117.07 44.91 116.61 44.21 115.53 42.88 113.48 45.31 113.35 46.61 113.29 46.84 112.83 46.13 111.74 44.81 109.7 47.24 109.57 48.53 109.5 48.77 109.04 48.06 107.95 46.74 105.91 49.17 105.78 50.46 105.72 50.7 105.26 49.99 104.17 48.66 102.13 51.1 102 52.39 101.93 52.63 101.47 51.92 100.39 50.59 98.34 53.03 98.21 54.32 98.14 54.52 97.75 44.71 92.75 18.69 127.73 35.01 136.05 35.27 135.54"></polygon>
                <path d="M32.09,136.33 L20.18,130.26 L17.97,129.14 L13.5,138 C13.2981449,138.394778 13.322235,138.867257 13.5631956,139.239458 C13.8041563,139.611659 14.2253799,139.827036 14.6681956,139.804458 C15.1110114,139.78188 15.508145,139.524778 15.71,139.13 L16.95,136.68 C17.0190537,139.469182 18.6108341,141.996285 21.0966436,143.263192 C23.5824532,144.530099 26.5625883,144.333099 28.86,142.75 L27.62,145.19 C27.3776508,145.586734 27.3775785,146.085699 27.6198129,146.482503 C27.8620474,146.879308 28.3058873,147.10728 28.7695237,147.073036 C29.23316,147.038793 29.638691,146.748087 29.82,146.32 L34.33,137.47 L32.09,136.33 Z M27.82,140.54 C27.4598427,141.270823 26.8337004,141.83614 26.07,142.12 C24.6940601,142.613138 23.1777022,142.532924 21.8614694,141.897371 C20.5452365,141.261819 19.539454,140.1242 19.07,138.74 C18.790905,137.895289 18.859263,136.974255 19.26,136.18 L20.72,133.33 C20.8249075,133.116751 21.0116072,132.955 21.2376267,132.881544 C21.4636463,132.808087 21.7097674,132.829172 21.92,132.94 L28.86,136.47 C29.3006404,136.697066 29.4784834,137.235041 29.26,137.68 L27.82,140.54 Z" id="Shape" fill="url(#linearGradient-9)"></path>
                <rect id="Rectangle" fill="#434343" transform="translate(26.487692, 132.587721) rotate(27.000000) translate(-26.487692, -132.587721) " x="17.3276918" y="131.797721" width="18.32" height="1.58"></rect>
                <rect id="Rectangle" fill="url(#linearGradient-10)" transform="translate(225.614060, 165.618524) rotate(27.000000) translate(-225.614060, -165.618524) " x="218.19906" y="154.378524" width="14.83" height="22.48" rx="1.85"></rect>
                <path d="M215.86,173.27 L212.23,180.41 C211.850186,181.146732 211.78018,182.0046 212.035525,182.793163 C212.290869,183.581727 212.850434,184.235734 213.59,184.61 L213.98,184.81 L211.22,190.22 L209.91,189.56 C209.771993,189.487008 209.605265,189.494552 209.474414,189.579709 C209.343562,189.664866 209.269147,189.814256 209.28,189.97 L209.63,195.67 C209.641953,195.822967 209.732726,195.95866 209.86955,196.028093 C210.006374,196.097526 210.169485,196.09067 210.3,196.01 L215.11,192.94 C215.245619,192.863903 215.329584,192.72051 215.329584,192.565 C215.329584,192.40949 215.245619,192.266097 215.11,192.19 L213.81,191.52 L216.57,186.11 L217.36,186.51 C218.895742,187.289302 220.772542,186.681576 221.56,185.15 L225.19,178.01 L215.86,173.27 Z" id="Path" fill="#C4BEBD"></path>
                <path d="M223.14,181.3 L213.98,176.64 C213.292216,176.284354 213.019901,175.440624 213.37,174.75 C213.721634,174.0635 214.562293,173.790733 215.25,174.14 L224.41,178.8 C225.097784,179.155646 225.370099,179.999376 225.02,180.69 C224.668366,181.3765 223.827707,181.649267 223.14,181.3 Z" id="Path" fill="#434343"></path>
                <path d="M221.4,184.7 L212.25,180 C211.558462,179.647944 211.281375,178.803274 211.63,178.11 C211.985646,177.422216 212.829376,177.149901 213.52,177.5 L222.67,182.17 C223.360259,182.518023 223.637812,183.359635 223.29,184.05 C223.126229,184.387444 222.834756,184.645728 222.48006,184.767713 C222.125364,184.889699 221.736683,184.865331 221.4,184.7 Z" id="Path" fill="#434343"></path>
                <path d="M241.55,149.78 C241.519068,149.598782 241.404056,149.442959 241.24,149.36 L235.68,146.53 L235.63,146.53 L230.07,143.7 C229.906014,143.619497 229.713986,143.619497 229.55,143.7 C229.385944,143.782959 229.270932,143.938782 229.24,144.12 L227.71,152.46 C227.656377,152.716274 227.784238,152.976121 228.02,153.09 L231.41,154.82 L234.8,156.55 C235.029317,156.668108 235.308774,156.623557 235.49,156.44 L241.34,150.29 C241.491523,150.166289 241.57048,149.974535 241.55,149.78 Z M235,155.31 L232,153.77 L231.95,153.77 L228.95,152.23 L230.26,145.09 L235.12,147.56 L235.17,147.56 L240.03,150.04 L235,155.31 Z" id="Shape" fill="#C4BEBD"></path>
                <rect id="Rectangle" fill="url(#linearGradient-11)" transform="translate(235.320102, 147.120881) rotate(27.000000) translate(-235.320102, -147.120881) " x="230.420102" y="145.910881" width="9.8" height="2.42"></rect>
                <path d="M232.42,152.82 C231.746774,152.475452 230.963929,152.41365 230.244979,152.648295 C229.526029,152.882939 228.93036,153.394647 228.59,154.07 L228.4,154.43 L233.5,157 L233.68,156.64 C234.020654,155.966552 234.079246,155.185209 233.842841,154.468487 C233.606435,153.751765 233.094476,153.158615 232.42,152.82 Z" id="Path" fill="#434343"></path>
                <rect id="Rectangle" fill="#434343" transform="translate(198.564145, 51.696787) rotate(-68.490000) translate(-198.564145, -51.696787) " x="192.669145" y="49.2917872" width="11.79" height="4.81"></rect>
                <path d="M210.2,14.23 L215.66,16.38 C216.657288,16.773662 217.448525,17.5605333 217.847698,18.5556286 C218.246871,19.550724 218.21877,20.6662652 217.77,21.64 L205.77,46.64 C205.420234,47.3940706 204.543328,47.744833 203.77,47.44 L197.7,45 C196.902961,44.6920407 196.498549,43.8032222 196.79,43 L205.07,16.57 C205.417567,15.5624807 206.163294,14.7416927 207.132966,14.2993863 C208.102637,13.8570799 209.211318,13.8319979 210.2,14.23 Z" id="Path" fill="url(#linearGradient-12)"></path>
                <path d="M180.85,59.14 C181.514466,62.1707119 183.672621,64.6565449 186.58,65.74 L197.77,70.15 C198.284403,70.36082 198.861602,70.3580117 199.373929,70.1421963 C199.886256,69.9263808 200.29149,69.5153436 200.5,69 L201.4,66.71 L203.69,67.62 L202.82,69.84 C202.607245,70.3716042 202.615336,70.966115 202.842478,71.4917327 C203.06962,72.0173505 203.497047,72.4306482 204.03,72.64 L205.6,73.26 C206.710089,73.6961113 207.963556,73.1499579 208.4,72.04 L211.32,64.63 C211.756111,63.5199112 211.209958,62.2664444 210.1,61.83 L208.5,61.18 C207.389911,60.7438887 206.136444,61.2900421 205.7,62.4 L204.82,64.62 L202.53,63.72 L203.17,62.1 C203.586593,61.0259192 203.060089,59.8167432 201.99,59.39 L190.82,55 C186.75,53.4 186.39,50.84 186.87,48.53 C186.941414,48.1716329 186.770053,47.8087188 186.447949,47.6361628 C186.125844,47.4636068 185.728779,47.5220073 185.47,47.78 C183.05,50.18 179.71,54.45 180.85,59.14 Z" id="Path" fill="#C4BEBD"></path>
                <path d="M135.02,77.58 C134.19773,76.1902427 132.856383,75.1846755 131.291811,74.7850906 C129.72724,74.3855058 128.067978,74.6247303 126.68,75.45 L124.94,76.45 L119.41,67.12 C118.791253,66.0704849 117.780636,65.3100216 116.600807,65.0061549 C115.420979,64.7022881 114.168746,64.8799506 113.12,65.5 C110.933098,66.7924556 110.207834,69.6129268 111.5,71.8 L117.03,81.13 L115.28,82.13 C113.891291,82.9505705 112.885569,84.2893465 112.484211,85.8516402 C112.082854,87.4139338 112.318759,89.0716871 113.14,90.46 L135.02,77.58 Z" id="Path" fill="url(#linearGradient-13)"></path>
                <rect id="Rectangle" fill="#434343" transform="translate(124.591354, 84.923213) rotate(149.380000) translate(-124.591354, -84.923213) " x="111.881354" y="83.9132134" width="25.42" height="2.02"></rect>
                <rect id="Rectangle" fill="#434343" transform="translate(127.089313, 89.137105) rotate(149.380000) translate(-127.089313, -89.137105) " x="114.379313" y="88.1271046" width="25.42" height="2.02"></rect>
                <rect id="Rectangle" fill="#C4BEBD" transform="translate(125.859150, 87.169350) rotate(149.331073) translate(-125.859150, -87.169350) " x="113.476008" y="85.7345653" width="24.7662842" height="2.86956947"></rect>
                <rect id="Rectangle" fill="#C4BEBD" transform="translate(131.618191, 96.774619) rotate(149.380000) translate(-131.618191, -96.774619) " x="118.908191" y="88.9046186" width="25.42" height="15.74"></rect>
                <polygon id="Path" fill="#ADABAB" points="124.68 110.02 146.56 97.07 145.39 95.11 141.03 89.58 144.82 97.2 141.41 93.45 143.36 97.77 137.72 89.49 142.54 98.38 137.33 91.76 141.13 99.39 137.72 95.64 139.47 99.55 134.09 91.64 138.8 100.31 133.74 93.89 137.54 101.52 135.71 99.23 137 102.22 133.09 96.56 136.03 102.53 134.15 100.16 135.36 102.97 129.96 96.13 133.62 103.48 128.01 95.24 132.87 104.19 129.51 100.49 131.74 105.45 126.16 98.38 130.22 106.52 128.03 103.78 129.41 106.98 125.61 102.8 127.44 106.88 122.47 100.56 126.04 107.75 120.53 99.66 124.5 106.97 120.41 101.78 123.68 108.34"></polygon>
            </g>
        </g>
    </g>
</svg>